<?xml version="1.0" encoding="utf-8"?>
<!-- Generator: Adobe Illustrator 27.1.1, SVG Export Plug-In . SVG Version: 6.00 Build 0)  -->
<svg version="1.1" id="Laag_1" xmlns="http://www.w3.org/2000/svg" xmlns:xlink="http://www.w3.org/1999/xlink" x="0px" y="0px"
	 viewBox="0 0 1142.2 781.1" style="enable-background:new 0 0 1142.2 781.1;" xml:space="preserve">
<style type="text/css">
	.st0{opacity:0.1;fill:#1787AA;enable-background:new    ;}
	.st1{fill:#4ECD5D;}
	.st2{opacity:0.1;}
	.st3{fill:#384B61;}
	.st4{opacity:0.1;enable-background:new    ;}
	.st5{fill:none;stroke:#535461;stroke-miterlimit:10;}
	.st6{opacity:0.2;fill:#F5F5F5;enable-background:new    ;}
	.st7{fill:none;stroke:#535461;stroke-width:2;stroke-miterlimit:10;}
	.st8{fill:#A8A8A8;}
	.st9{opacity:0.2;enable-background:new    ;}
	.st10{fill:#FFD037;}
	.st11{fill:#DC9BA3;}
	.st12{fill:#E2BFAC;}
	.st13{fill:#E9E9EF;}
	.st14{opacity:5.000000e-02;enable-background:new    ;}
	.st15{fill:#CEDAD5;}
	.st16{fill:#D6BF96;}
	.st17{opacity:5.000000e-02;}
	.st18{opacity:0.2;fill:#FFFFFF;enable-background:new    ;}
	.st19{opacity:5.000000e-02;fill:#00FF00;enable-background:new    ;}
	.st20{fill:url(#SVGID_1_);}
	.st21{fill:#5F5D7E;}
	.st22{fill:#2F3F4F;}
	.st23{fill:#FDC2CC;}
	.st24{fill:#C4C8E2;}
	.st25{fill:#91C9E2;}
	.st26{fill:#898989;}
	.st27{fill:#303233;}
	.st28{fill:#5B4F43;}
	.st29{fill:url(#SVGID_00000166670048083400665350000012300967744640205493_);}
	.st30{fill:#B2AF9A;}
	.st31{fill:#596659;}
	.st32{fill:#CECECE;}
	.st33{fill:#A3A08E;}
	.st34{fill:#A3836D;}
</style>
<path class="st0" d="M1141,327.8c-6.9,28.1-42.6,42.3-62.6,63.3c-37.7,39.6-23,97.4,0.9,143.7c8,15.5,17.1,31.9,13.7,48.5
	c-4.1,20.3-26.1,35.2-49.1,43.1c-42,14.3-92.3,10.9-130.9-8.9c-33.4-17.2-57.3-45-91.2-61.4c-56.8-27.4-129.1-17-190.7,1.8
	c-43.6,13.3-91.3,30.7-134.7,16.8c-30.5-9.8-51.6-33.7-63.1-59c-5.5-12.2-9.6-25.5-20.2-35.2c-6.3-5.8-14.5-9.9-22.9-13.3
	c-76.9-31.5-174-14.6-248.6-49.6c-50.4-23.6-82.7-68.1-97-114.5s-12.6-95.1-9-142.9c2.6-34,7.2-70.2,33.5-96.4
	c27.8-27.7,75.4-38,118.5-32.8S269.7,55,304.1,77.1c43,27.7,82.8,62.1,135.5,73.3c35.9,7.6,73.7,3.4,110.7,2
	c61.9-2.4,123.9,3,185.4,8.8c30,2.9,60.1,5.9,89.8,10.2c6.7,1,13.3,2,20,3.1c3.3,0.6,6.7,1.2,10,1.8c2.6,0.5,5.2,1,7.8,1.5
	c4.1,0.8,8.2,1.6,12.2,2.5c11.7,2.5,23.2,5.3,34.6,8.6c39.7,11.2,71.6,31.6,109.1,45.8c24.5,9.3,51.1,11.8,74.3,23.6
	C1122.1,272.8,1148.3,298.1,1141,327.8z"/>
<ellipse transform="matrix(0.7071 -0.7071 0.7071 0.7071 9.7723 774.6323)" class="st1" cx="940" cy="375.5" rx="102.2" ry="102.2"/>
<circle class="st1" cx="831.2" cy="347.6" r="102.2"/>
<circle class="st1" cx="711.5" cy="348.6" r="102.2"/>
<circle class="st1" cx="672.7" cy="375.5" r="102.2"/>
<circle class="st1" cx="606.8" cy="384.5" r="102.2"/>
<circle class="st1" cx="579.9" cy="303.7" r="102.2"/>
<circle class="st1" cx="609.8" cy="209.9" r="102.2"/>
<circle class="st1" cx="666.7" cy="209.9" r="102.2"/>
<circle class="st1" cx="699.6" cy="168.1" r="102.2"/>
<circle class="st1" cx="783.4" cy="213.9" r="102.2"/>
<circle class="st1" cx="978.8" cy="303.7" r="102.2"/>
<circle class="st1" cx="920" cy="252.8" r="102.2"/>
<circle class="st1" cx="882.1" cy="202" r="102.2"/>
<circle class="st1" cx="810.3" cy="125.2" r="102.2"/>
<ellipse transform="matrix(0.7071 -0.7071 0.7071 0.7071 128.0166 728.9593)" class="st1" cx="943.9" cy="209.9" rx="102.2" ry="102.2"/>
<g class="st2">
	<ellipse transform="matrix(0.7071 -0.7071 0.7071 0.7071 9.7723 774.6323)" cx="940" cy="375.5" rx="102.2" ry="102.2"/>
	<circle cx="831.2" cy="347.6" r="102.2"/>
	<circle cx="711.5" cy="348.6" r="102.2"/>
	<circle cx="672.7" cy="375.5" r="102.2"/>
	<circle cx="606.8" cy="384.5" r="102.2"/>
	<circle cx="579.9" cy="303.7" r="102.2"/>
	<circle cx="609.8" cy="209.9" r="102.2"/>
	<circle cx="666.7" cy="209.9" r="102.2"/>
	<circle cx="699.6" cy="168.1" r="102.2"/>
	<circle cx="783.4" cy="213.9" r="102.2"/>
	<circle cx="978.8" cy="303.7" r="102.2"/>
	<circle cx="920" cy="252.8" r="102.2"/>
	<circle cx="882.1" cy="202" r="102.2"/>
	<circle cx="810.3" cy="125.2" r="102.2"/>
	<ellipse transform="matrix(0.7071 -0.7071 0.7071 0.7071 128.0166 728.9593)" cx="943.9" cy="209.9" rx="102.2" ry="102.2"/>
</g>
<path class="st3" d="M889.5,554.7c0,0,62.5-52.5,31.6-127.3l-30.9-11.6L856.6,519L889.5,554.7z"/>
<path class="st4" d="M892.8,412.2l7.4,2.8l-32.9,101.4l28.7,31.1c-2.4,2.4-3.9,3.6-3.9,3.6l-32.9-35.6L892.8,412.2z"/>
<ellipse class="st0" cx="579.5" cy="687.9" rx="556.5" ry="93.2"/>
<path class="st1" d="M1007.8,543.6c0,0-20.3,20.3-8.8,50.5c11.5,30.2-19.7,80.3-19.7,80.3l1-0.2c41.7-7.4,62.5-55.1,39.3-90.6
	C1010.9,570.5,1003.8,555.1,1007.8,543.6z"/>
<path class="st5" d="M1007.8,543.6c0,0-11.5,24.9,0,45.2s2,77.4-28.5,85.6"/>
<path class="st1" d="M1044.1,625.9c0,0-23.2-3.7-25.3,17.1s-44.6,23.7-44.6,23.7l0.8,0.5c35.1,23,68.6,14.7,63.6-15.9
	C1036.6,639.9,1036.8,628.5,1044.1,625.9z"/>
<path class="st6" d="M1044.1,625.9c0,0-23.2-3.7-25.3,17.1s-44.6,23.7-44.6,23.7l0.8,0.5c35.1,23,68.6,14.7,63.6-15.9
	C1036.6,639.9,1036.8,628.5,1044.1,625.9z"/>
<path class="st5" d="M1044.1,625.9c0,0-18,4-16.5,20.3s-26.7,36-53.4,20.4"/>
<path class="st3" d="M607.2,445.3l8.1,32.5c0,0,57.4,7.5,95.6,2.8c6.8-1,13.3-3.3,19.1-6.9c3.2-1.9,8.3-2.7,15.3,2.5
	c11.9,9,70.5,81,61,155.7c-1.5,11.6-10.6,20.7-22.2,22.2l0,0c-11.7,1.6-22.9,5.8-32.7,12.4l-29,19.3l297.3-6.5L989,641.9
	c0,0-21.1-17.9-37.4-19.5c-4.7-0.5-8.7-4.8-11.8-10.7c-18.5-34.7-40.7-67.2-64.7-98.3c-17.5-22.7-32.2-46.5-30.8-61.5
	c3.2-35.8,0-94.2,0-94.2l-61.7-8.1c0,0,8.1,78-66.6,97.5C641.3,466.4,607.2,445.3,607.2,445.3z"/>
<g class="st2">
	<path d="M657.6,459.9c0,0,34.1,21.1,108.9,1.6s66.6-97.5,66.6-97.5l11.8,1.5c-0.2-5-0.4-8-0.4-8l-61.7-8.1c0,0,8.1,78-66.6,97.5
		s-108.9-1.6-108.9-1.6l8.1,32.5c0,0,21.9,2.9,47.7,3.9L657.6,459.9z"/>
	<path d="M801.9,681.1c9.8-6.5,21-10.8,32.7-12.4l0,0c11.5-1.5,20.6-10.6,22.2-22.2c9.5-74.7-49.1-146.8-61-155.8
		c-13-9.8-19.5,1.6-19.5,1.6c-4.6,1.2-9.3,2.1-14,2.7c21.1,28,51.2,81.7,44.1,136.9c-1.5,11.5-10.6,20.6-22.2,22.2l0,0
		c-11.7,1.6-22.9,5.8-32.7,12.4l-29,19.3l74.8-1.6L801.9,681.1z"/>
</g>
<path class="st7" d="M657,602.9c0,0-6.2-21.1,1.2-36.6c3.1-6.5,4.1-13.8,2.7-20.9c-0.7-3.4-1.7-6.6-3-9.8"/>
<path class="st1" d="M662.5,525.8c0,2.6-4.7,10.1-4.7,10.1s-4.7-7.5-4.7-10.1c0-2.6,2.1-4.7,4.7-4.7
	C660.4,521.1,662.5,523.2,662.5,525.8C662.5,525.8,662.5,525.8,662.5,525.8L662.5,525.8z"/>
<path class="st1" d="M670.2,540.1c-1.4,2.2-9.4,5.9-9.4,5.9s0.2-8.8,1.5-11c1.3-2.2,4.2-2.9,6.4-1.6s2.9,4.2,1.6,6.4
	C670.3,540,670.2,540,670.2,540.1L670.2,540.1z"/>
<path class="st1" d="M669.8,564.5c-2.3,1.2-11.1,0.4-11.1,0.4s4.6-7.5,6.9-8.7c2.3-1.2,5.1-0.2,6.3,2.1
	C673.1,560.6,672.2,563.4,669.8,564.5L669.8,564.5z"/>
<path class="st1" d="M665.4,583c-2.1,1.5-10.9,2.2-10.9,2.2s3.2-8.2,5.3-9.8c2.1-1.5,5-0.9,6.5,1.2
	C667.7,578.8,667.3,581.5,665.4,583z"/>
<path class="st1" d="M651,546.5c1.8,1.8,10.5,3.7,10.5,3.7s-2.1-8.6-4-10.4c-1.9-1.7-4.9-1.6-6.6,0.3
	C649.2,542,649.2,544.8,651,546.5L651,546.5z"/>
<path class="st1" d="M646.1,568.2c2.3,1.2,11.1,0.4,11.1,0.4s-4.6-7.5-6.9-8.7c-2.3-1.2-5.1-0.2-6.3,2.1
	C642.8,564.2,643.8,567,646.1,568.2L646.1,568.2L646.1,568.2z"/>
<path class="st1" d="M644.2,589.9c2.1,1.5,10.9,2.2,10.9,2.2s-3.2-8.2-5.3-9.8c-2.1-1.5-5-0.9-6.5,1.2
	C641.9,585.6,642.3,588.3,644.2,589.9z"/>
<path class="st8" d="M643.5,600.8c0,0,11.3-2.3,14.4-5.3s16.6-8.3,18.2-4.5s20.4,16.6,7.6,18.9s-30.3,3-34,1.5
	S643.5,600.8,643.5,600.8z"/>
<path class="st9" d="M683.5,608.5c-12.9,2.3-30.3,3-34,1.5c-2.9-1.2-4.9-6.7-5.7-9.3l-0.4,0.1c0,0,2.3,9.1,6,10.6s21.2,0.8,34-1.5
	c3.7-0.7,4.8-2.2,4.4-4.1C687.6,607.1,686.3,608,683.5,608.5z"/>
<path class="st8" d="M831.6,672c0,0,34.4-6.9,43.6-16.1s50.5-25.2,55.1-13.8s62,50.5,23,57.4s-91.8,9.2-103.3,4.6
	S831.6,672,831.6,672z"/>
<path class="st9" d="M953.3,695.3c-39,6.9-91.8,9.2-103.3,4.6c-8.7-3.5-14.8-20.3-17.2-28.1l-1.2,0.2c0,0,6.9,27.5,18.4,32.1
	s64.3,2.3,103.3-4.6c11.3-2,14.5-6.7,13.3-12.6C965.6,690.8,961.7,693.8,953.3,695.3z"/>
<path class="st1" d="M1064.7,476.3c-0.1,4.1-1.4,8.1-3.7,11.5c-2.3-3.4-3.6-7.4-3.8-11.5c0-6.3,1.6-11.5,3.7-11.5
	S1064.6,470,1064.7,476.3z"/>
<path class="st1" d="M782.4,470.8c-0.1,4.1-1.4,8.1-3.7,11.5c-2.3-3.4-3.6-7.4-3.7-11.5c0-6.3,1.7-11.5,3.7-11.5
	S782.4,464.4,782.4,470.8z"/>
<path class="st1" d="M1090,584.1c2.3,3.4,3.6,7.4,3.7,11.5c-3.9-1.4-7.3-3.9-9.8-7.1c-3.7-5.1-5.4-10.3-3.7-11.5
	S1086.3,579,1090,584.1z"/>
<path class="st1" d="M970.6,523.9c-0.1,4.1-1.4,8.1-3.7,11.5c-2.3-3.4-3.6-7.4-3.7-11.5c0-6.3,1.7-11.5,3.7-11.5
	S970.6,517.5,970.6,523.9z"/>
<path class="st1" d="M900.7,485.7c-0.1,4.1-1.4,8.1-3.7,11.5c-2.3-3.4-3.6-7.4-3.7-11.5c0-6.3,1.7-11.5,3.7-11.5
	S900.7,479.3,900.7,485.7z"/>
<path class="st1" d="M857.3,509c1.9,3.6,2.8,7.7,2.5,11.8c-3.7-1.8-6.8-4.6-9-8.1c-3.2-5.5-4.3-10.8-2.5-11.8S854.2,503.5,857.3,509
	z"/>
<path class="st1" d="M825,614.6c-3.1,2.7-6.9,4.5-11,5.1c0.9-4,2.9-7.7,5.8-10.6c4.6-4.3,9.5-6.6,11-5.1S829.6,610.3,825,614.6z"/>
<path class="st4" d="M825,614.6c-3.1,2.7-6.9,4.5-11,5.1c0.9-4,2.9-7.7,5.8-10.6c4.6-4.3,9.5-6.6,11-5.1S829.6,610.3,825,614.6z"/>
<path class="st1" d="M893,608.1c-3.1,2.7-6.9,4.5-11,5.1c0.9-4,2.9-7.7,5.8-10.6c4.6-4.3,9.5-6.6,11-5.1S897.6,603.7,893,608.1z"/>
<path class="st4" d="M893,608.1c-3.1,2.7-6.9,4.5-11,5.1c0.9-4,2.9-7.7,5.8-10.6c4.6-4.3,9.5-6.6,11-5.1S897.6,603.7,893,608.1z"/>
<path class="st1" d="M906,677c-3.1,2.7-6.9,4.5-11,5.1c0.9-4,2.9-7.7,5.8-10.6c4.6-4.3,9.5-6.6,11-5.1S910.6,672.7,906,677z"/>
<path class="st4" d="M906,677c-3.1,2.7-6.9,4.5-11,5.1c0.9-4,2.9-7.7,5.8-10.6c4.6-4.3,9.5-6.6,11-5.1S910.6,672.7,906,677z"/>
<path class="st8" d="M1008.6,672.1c0,0,17.1-3.4,21.7-7.9s25.1-12.5,27.4-6.8s30.8,24.9,11.4,28.3s-45.6,4.5-51.3,2.3
	S1008.6,672.1,1008.6,672.1z"/>
<path class="st9" d="M1069.1,683.6c-19.4,3.4-45.6,4.5-51.3,2.3c-4.3-1.7-7.4-10-8.6-13.9l-0.6,0.1c0,0,3.4,13.6,9.1,15.9
	s31.9,1.1,51.3-2.3c5.6-1,7.2-3.3,6.6-6.2C1075.2,681.4,1073.3,682.9,1069.1,683.6z"/>
<ellipse transform="matrix(0.7071 -0.7071 0.7071 0.7071 25.9933 767.9133)" class="st1" cx="940" cy="352.6" rx="102.2" ry="102.2"/>
<circle class="st1" cx="831.2" cy="324.6" r="102.2"/>
<circle class="st1" cx="711.5" cy="325.6" r="102.2"/>
<circle class="st1" cx="672.7" cy="352.6" r="102.2"/>
<circle class="st1" cx="606.8" cy="361.6" r="102.2"/>
<circle class="st1" cx="579.9" cy="280.8" r="102.2"/>
<circle class="st1" cx="609.8" cy="187" r="102.2"/>
<circle class="st1" cx="666.7" cy="187" r="102.2"/>
<circle class="st1" cx="699.6" cy="145.1" r="102.2"/>
<circle class="st1" cx="783.4" cy="191" r="102.2"/>
<circle class="st1" cx="978.8" cy="280.8" r="102.2"/>
<circle class="st1" cx="920" cy="229.9" r="102.2"/>
<circle class="st1" cx="882.1" cy="179" r="102.2"/>
<circle class="st1" cx="810.3" cy="102.2" r="102.2"/>
<ellipse transform="matrix(0.7071 -0.7071 0.7071 0.7071 144.2376 722.2404)" class="st1" cx="943.9" cy="187" rx="102.2" ry="102.2"/>
<path class="st4" d="M1041.7,203c0,0-95.2-45.1-152.8,34.9"/>
<path class="st4" d="M791.7,111.6c0,0-105.3-3.2-126,93.2"/>
<path class="st4" d="M660.7,320.7c0,0-95.2-45.2-152.8,34.8"/>
<path class="st1" d="M320.8,682.5c0,0,5.5,7.2-2.5,18s-14.6,20-12,26.8c0,0,12.1-20.1,22-20.4S331.7,694.6,320.8,682.5z"/>
<path class="st4" d="M320.8,682.5c0.5,0.7,0.9,1.5,1.1,2.2c9.6,11.3,14.8,21.8,5.5,22.1c-8.6,0.2-19,15.7-21.4,19.5
	c0.1,0.3,0.2,0.6,0.3,0.9c0,0,12.1-20.1,22-20.4S331.7,694.6,320.8,682.5z"/>
<path class="st10" d="M331,691.7c0,2.5-0.3,4.6-0.6,4.6s-0.6-2-0.6-4.6s0.4-1.3,0.7-1.3S331,689.2,331,691.7z"/>
<path class="st10" d="M334.5,694.7c-2.2,1.2-4.2,1.9-4.3,1.6s1.5-1.5,3.7-2.8s1.3-0.3,1.5,0S336.8,693.5,334.5,694.7z"/>
<path class="st1" d="M291.8,682.5c0,0-5.5,7.2,2.5,18s14.7,20,12,26.8c0,0-12.1-20.1-22-20.4C274.5,706.6,281,694.6,291.8,682.5z"/>
<path class="st4" d="M291.8,682.5c-0.5,0.7-0.9,1.5-1.1,2.2c-9.6,11.3-14.8,21.8-5.5,22.1c8.6,0.2,19,15.7,21.4,19.5
	c-0.1,0.3-0.2,0.6-0.3,0.9c0,0-12.1-20.1-22-20.4C274.4,706.6,281,694.6,291.8,682.5z"/>
<path class="st10" d="M281.6,691.7c0,2.5,0.3,4.6,0.6,4.6s0.6-2,0.6-4.6s-0.4-1.3-0.7-1.3C281.8,690.3,281.6,689.2,281.6,691.7z"/>
<path class="st10" d="M278.1,694.7c2.2,1.2,4.2,1.9,4.3,1.6s-1.5-1.5-3.7-2.8s-1.3-0.3-1.5,0C277,693.9,275.9,693.5,278.1,694.7z"/>
<path class="st8" d="M283.4,726.4c0,0,15.4-0.5,20-3.8s23.6-7.2,24.8-2s23.1,26.3,5.7,26.4s-40.3-2.7-44.9-5.5
	S283.4,726.4,283.4,726.4z"/>
<path class="st9" d="M334.2,745.3c-17.3,0.1-40.3-2.7-44.9-5.5c-3.5-2.1-4.9-9.8-5.4-13.4h-0.5c0,0,1,12.4,5.6,15.2
	s27.6,5.7,44.9,5.5c5,0,6.7-1.8,6.6-4.5C339.8,744.2,337.9,745.2,334.2,745.3z"/>
<path class="st1" d="M835,742.3c1.8-1.5,3.2-3.5,3.8-5.8c0.5-2.3-0.5-5-2.7-5.9c-2.5-0.9-5.1,0.8-7.1,2.5c-2,1.7-4.3,3.7-6.9,3.3
	c2.7-2.5,4-6.2,3.2-9.8c-0.1-0.7-0.4-1.4-0.9-2c-1.4-1.5-3.8-0.8-5.5,0.3c-5.2,3.7-6.7,10.7-6.7,17.1c-0.5-2.3-0.1-4.7-0.1-7
	c0-2.3-0.7-5-2.6-6.2c-1.2-0.7-2.6-1-4-1c-2.3-0.1-4.9,0.2-6.5,1.9c-2,2.1-1.5,5.7,0.3,8c1.7,2.3,4.4,3.8,6.8,5.4
	c1.9,1.2,3.6,2.7,4.8,4.6c0.1,0.3,0.3,0.5,0.4,0.8h14.6C829.2,746.9,832.3,744.8,835,742.3z"/>
<path class="st1" d="M1029.6,732.3c1.8-1.5,3.2-3.5,3.8-5.8c0.5-2.3-0.5-5-2.7-5.9c-2.5-0.9-5.1,0.8-7.1,2.5s-4.3,3.7-6.9,3.3
	c2.7-2.5,4-6.2,3.2-9.8c-0.1-0.7-0.4-1.4-0.9-2c-1.4-1.5-3.8-0.8-5.5,0.3c-5.2,3.7-6.7,10.7-6.7,17.1c-0.5-2.3-0.1-4.7-0.1-7
	s-0.7-5-2.6-6.2c-1.2-0.7-2.6-1-4-1c-2.3-0.1-4.9,0.2-6.5,1.9c-2,2.1-1.5,5.7,0.3,8c1.7,2.3,4.4,3.8,6.8,5.4
	c1.9,1.2,3.6,2.7,4.8,4.6c0.1,0.3,0.3,0.5,0.4,0.8h14.7C1023.8,736.9,1026.8,734.8,1029.6,732.3z"/>
<path class="st11" d="M688.7,726.9c0,0-1,15.7,1,18.3c0,0-45.9,8.3-51.7,5.7s-3.1-6.8,0-8.3s18.8-7.3,20.9-18.3c0,0-6.8-3.1,15.1,1
	S688.7,726.9,688.7,726.9z"/>
<path class="st3" d="M688.7,726.9c0,0-1,15.7,1,18.3c0,0-45.9,8.3-51.7,5.7s-3.1-6.8,0-8.3s18.8-7.3,20.9-18.3c0,0-6.8-3.1,15.1,1
	S688.7,726.9,688.7,726.9z"/>
<path class="st12" d="M867.7,575c0,0-5.7,9.4-2.1,27.7s-9.4,18.3-9.4,18.3h-26.1l-8.9-23l12.5,1c0,0,8.3-2.1,4.7-21.4L867.7,575z"/>
<path class="st12" d="M789.4,553.1c4,12.7,9,28.2,11.7,36.4l1.9,5.8l17.2-17.7c0,0-0.8-1.8-1.9-4.2c-2.5-5.5-6.9-14.4-9.1-15.1
	c0,0,24-1.6,31.3,4.2s5.2-15.7,5.2-15.7s-14.1-1-19.3-4.2s-33.4-6.3-33.4-6.3S783.7,534.8,789.4,553.1z"/>
<path class="st12" d="M632.8,706.5l3.7,26.6l9.4-1c0,0,0.6-0.5,1.5-1.4c2.5-2.2,7.8-6.6,12.8-9c1.7-0.9,3.6-1.4,5.5-1.6l-10.4-15.7
	c-2.5,1-5.1,1.7-7.8,2.3c-2.8,0.6-5.6,1-8.4,1C637,707.8,634.8,707.4,632.8,706.5z"/>
<path class="st13" d="M658.9,725.3c4.7,4.2,26.1-4.7,29.8,8.9l3.4-12.9l10.3-39.6l1.4-5.5l8.6-0.4l98.9-4.2l5.6-0.2l3-0.1l-3.9-1.9
	L790,656.4c0,0-9.4-0.7-22.4-2.4l0,0c-19.7-2.7-47.5-8-63.2-17.4c-26.1-15.7-36,37-36,37s-4,13.4-7,26.5c-1.4,5.7-2.4,11.4-3.2,17.2
	C657.8,721.5,657.9,724.4,658.9,725.3z"/>
<path class="st14" d="M658.9,725.3c4.7,4.2,26.1-4.7,29.8,8.9l3.4-12.9l10.3-39.6l1.4-5.5l8.9-0.5l95.6-5.9l5.9-0.4l1.8-0.1l2.3-0.2
	l-28.4-12.8c0,0-9.4-0.7-22.4-2.4l0,0c-19.7-2.7-47.5-8-63.2-17.4c-26.1-15.7-36,37-36,37s-4,13.4-7,26.5
	c-1.4,5.7-2.4,11.4-3.2,17.2C657.8,721.5,657.9,724.4,658.9,725.3z"/>
<path class="st4" d="M647.5,706.7l9.1,10.7l3.6,4.3c1.7-0.9,3.6-1.4,5.5-1.6l-10.4-15.7C652.8,705.4,650.1,706.2,647.5,706.7z"/>
<path class="st13" d="M648,705.5l10.2,12l4.9,5.8v1.6c6,1.4,24.8-2.6,28.9-3.5l0.8-0.2c12,0.5,56.4-25.6,56.4-25.6s48.5,8.3,72,6.3
	c13.1-1.2,16.8-5.9,17.5-9.9c0.3-2,0-4-0.8-5.8l-21-14.8l-2.8-2l-4.4-3.1c0,0-7.7-1.8-17.5-3.9l0,0c-15.3-3.4-35.7-7.8-39.9-8.1
	c-6.8-0.5-24,5.2-33.9,16.7c-1.7,1.8-3.6,3.4-5.7,4.7l-0.3,0.2c-2.8,1.8-6.2,3.8-10,5.8c-12.6,6.7-29.5,13.8-41,18.5
	C653.4,703.4,648,705.5,648,705.5z"/>
<path class="st4" d="M632.8,706.5l3.7,26.6l9.4-1c0,0,0.6-0.5,1.5-1.4c-2.1,0-5.5-0.5-6.2-4.9c0,0,3.6-12.7-2.1-18.1
	C637,707.8,634.8,707.4,632.8,706.5z"/>
<path class="st3" d="M640.1,725.8c0,0,5.2-18.3-6.8-20.3l-19.8,7.8l-23,1.6c0,0-6,9.8,3.6,20.8c5.3,6,12.9,9.6,20.9,9.9l25.1,1.2
	l7.9-16.2C648,730.5,641.2,732.1,640.1,725.8z"/>
<path class="st4" d="M767.6,654c2.6,0.8,13.5,4,24.7,8.4l0,0c5.5,2.1,10.9,4.6,16.1,7.4c1.1,0.6,2.1,1.2,3.1,1.8
	c2.5,1.5,4.8,3.4,6.7,5.6c6.4,8.3,15.9,12.8,20.6,14.7c0.3-2,0-4-0.8-5.8l-21-14.8l3-0.1l-3.9-1.9l2.3-0.2l-28.4-12.8
	C789.9,656.4,780.5,655.8,767.6,654z"/>
<path class="st4" d="M801.1,589.5l1.9,5.8l17.2-17.7c0,0-0.8-1.8-1.9-4.2C816.1,578,805.7,586.1,801.1,589.5z"/>
<path class="st15" d="M863.2,598.2c0.6-1.8,1.1-3.6,1.3-5.4l22.4,7.8c0,0,15.4,11.7,13.8,37.3c0,0-19-7-27.4,1.3l-0.2,1.5
	c-1.8,14.6-8.2,28.2-18.4,38.8c-4.2,4.4-8.1,9.3-10.1,14c0,0-14.6-4.2-23.5-15.7s-51.1-23.5-51.1-23.5s22.4,0.5,25.6-7.3
	s13.6-24.5,9.9-37.6s-5.7-17.2-5.7-17.2s21.4-15.1,19.8-19.8l13.6,15.7l6.3,2.1c-0.5,1.2-0.7,2.5-0.7,3.8
	C838.4,608.1,858.5,611.5,863.2,598.2z"/>
<path class="st4" d="M839.2,584.5c-0.2-1.9-0.4-3.9-0.8-5.8l29.2-2.6c0,0-2,1.8-2.9,8.3c-3.4,2-7.4,4.8-11.7,4.8
	C848.1,589.1,843.2,587.5,839.2,584.5z"/>
<circle class="st12" cx="852.8" cy="565.4" r="23"/>
<path class="st16" d="M869.8,571.4h-3.1v-8.9l-3.1-9.4c0,0-15.7-7.3-23-5.7l-5.7,5.2c0,0-1.6-12.5,7.8-17.2s26.1-2.6,30.3,1
	s11,9.9,5.7,27.1l-1.5,4.2C877.1,567.7,870.8,565.6,869.8,571.4z"/>
<g class="st17">
	<path d="M829.2,583.4l-1.7-0.6l-7.9-9.1c0.2-0.4,0.2-0.9,0-1.3L829.2,583.4z"/>
	<path d="M840.2,600.2c-4.6-1.9-7.4-6.5-7.2-11.5c0-0.3,0-0.6,0-0.9l0.2,0.2l6.3,2.1c-0.5,1.2-0.7,2.5-0.7,3.8
		C838.6,596.2,839.2,598.3,840.2,600.2z"/>
	<path d="M779.3,653.9c13.1,4.5,30.8,11.7,36.2,18.7l0.4,0.5c-14.3-9.8-45.8-18.8-45.8-18.8C773.2,654.4,776.3,654.2,779.3,653.9z"
		/>
	<path d="M839,688.3c2.1-4.7,6-9.6,10.1-14c10.2-10.6,16.6-24.2,18.4-38.8l0.2-1.5c8.3-8.3,27.4-1.3,27.4-1.3
		c1-16.2-4.8-26.9-9.2-32.5l1.2,0.4c0,0,15.4,11.7,13.8,37.3c0,0-19-7-27.4,1.3l-0.2,1.5c-1.8,14.6-8.2,28.2-18.4,38.8
		c-4.2,4.4-8.1,9.3-10.1,14c0,0-12.7-3.6-21.6-13.4C827.9,683.6,833.3,686.4,839,688.3z"/>
</g>
<path class="st12" d="M844.7,627.2c0,0,25,36,38.1,46.4s16.7-4.7,16.7-4.7v-33.4l-23-2.6l-0.2,3.2l-0.3,3.6l-21.4-23
	c0,0-21.4-19.3-25.6-7.8S844.7,627.2,844.7,627.2z"/>
<path class="st4" d="M876.3,636.1c3.1,1.8,6.4,3.3,9.9,4.4c4.9,1.5,10.6-0.1,13.3-1.1v-3.9l-23-2.6L876.3,636.1z"/>
<path class="st15" d="M899.8,632.2l1.3,5.6c0,0-8.2,3.8-14.9,1.7c-4.6-1.5-8.9-3.7-13-6.3c-1-0.5,4.2-6.3,4.2-6.3L899.8,632.2z"/>
<path class="st4" d="M749.5,695.8c-3.5-2.7-7.4-4.8-11.5-6.3c-3.9-1.3-7.6-3.3-11-5.7"/>
<path class="st18" d="M590.6,714.9l0.8-0.1c-1.2,3.2-3,10.8,4.3,19.3c5.3,6,12.9,9.6,20.9,9.9l24.3,1.1l-0.8,1.6l-25.1-1.2
	c-8-0.3-15.5-3.9-20.9-9.9C584.6,724.7,590.6,714.9,590.6,714.9z"/>
<path class="st19" d="M679.2,737.2c-0.1,0.3-0.2,0.6-0.2,0.9C678.4,737.9,677.7,737.3,679.2,737.2z"/>
<path class="st18" d="M638.1,749.3c5.3,2.4,45.6-4.7,51-5.6c0.1,0.5,0.3,1,0.6,1.5c0,0-45.9,8.3-51.7,5.7c-3-1.3-3.7-3.1-3.3-4.7
	C635.1,747.3,636.1,748.4,638.1,749.3z"/>
<path class="st4" d="M838.2,554.4c-5.6-3.4-10.2-8.3-13.2-14.2c-0.4-0.6-0.6-1.4-0.5-2.2c0.4-1.4,2.2-1.7,3.6-2.3
	c2.5-1.1,3.5-4,5.2-6.2c2.9-3.7,7.6-5.5,12.2-4.7c2.4,0.5,4.6,1.7,7,2c5.2,0.8,10.8-2.4,15.5,0c2.1,1.1,3.6,3.1,4.8,5.2
	c3.2,5.1,7.1,10.5,4.3,16.4c-1.7,3.4-4.3,6.2-8,7.2s-8,0.2-11.8-0.2c-3.1-0.3-6.4-1-9.5-0.7C844,555,841.7,556.5,838.2,554.4z"/>
<path class="st16" d="M838.2,553.3c-5.6-3.4-10.2-8.3-13.2-14.2c-0.4-0.6-0.6-1.4-0.5-2.2c0.4-1.4,2.2-1.7,3.6-2.3
	c2.5-1.1,3.5-4,5.2-6.2c2.9-3.7,7.6-5.5,12.2-4.7c2.4,0.5,4.6,1.7,7,2c5.2,0.8,10.8-2.4,15.5,0c2.1,1.1,3.6,3.1,4.8,5.2
	c3.2,5.1,7.1,10.5,4.3,16.4c-1.7,3.4-4.3,6.2-8,7.2s-8,0.2-11.8-0.2c-3.1-0.3-6.4-1-9.5-0.7C844,554,841.7,555.5,838.2,553.3z"/>
<linearGradient id="SVGID_1_" gradientUnits="userSpaceOnUse" x1="1190.3151" y1="80.3254" x2="1340.2715" y2="80.3254" gradientTransform="matrix(-1 0 0 -1 1704.12 721.55)">
	<stop  offset="0" style="stop-color:#808080;stop-opacity:0.25"/>
	<stop  offset="0.54" style="stop-color:#808080;stop-opacity:0.12"/>
	<stop  offset="1" style="stop-color:#808080;stop-opacity:0.1"/>
</linearGradient>
<path class="st20" d="M363.8,688.3c0,10.8,0.6,17.9,0.6,17.9s15.4,0.9,14.9,15.1s59.7,17.3,59.7,17.3s0-0.2,0-0.4l0,0
	c0,0,0-1.2,0-3.2c5.7,0.8,11.8,1.5,15.3,1.2c-0.2,1.1-0.5,2.3-0.8,3.3c-0.3,0.3-5.8,5.9-5.6,11.8c-0.1,3,1.3,6.1,5.7,8.6
	c12.7,7.4,52.2,3.3,52.2,3.3c6-3.9,8-7.3,7.9-10.1c0.2-4.1-3.9-7-7.7-8.9c-2.9-1.4-6.2-1.8-9.4-1c-4.2,0.9-8.6,1.3-12.9,1
	c0.2-0.9,0.4-1.7,0.7-2.5c4.1,1.2,6.9,2,6.9,2s21.1-11.2,12.3-29.3c-1.4-2.5-3.5-4.6-6-5.9c6.8-11.7,13.2-25.4,12.6-34.7
	c-1.1-15.4-31.7-12.1-43.2-10.2L445,641.7c0-16,0.5-34.4-1-38.3c-2.6-6.9-1.8-6-3.5-9.1l-0.1-0.1c-1-1.6-3.7-4.2-4.4-3.8
	c-0.3-3.2-0.3-6.4,0.1-9.5c11.2-3.6,18.7-14,18.8-25.8c0-4.3-1-8.5-3-12.3l0.3-0.1l-2.9-14.3c-0.2-0.6-0.2-1.3,0.1-1.8
	c0.3-0.4,0.8-0.5,1.2-0.8c0.9-0.9,1.1-2.3,0.5-3.4c-0.3-0.5-0.6-1-1.1-1.4c-2.4-2.8-7.6-1.8-10.8-2.2c-4.3-0.5-8.9-1.3-12.9,0.8
	c-0.9,0.5-1.8,1-2.8,1.4c-1.3,0.4-2.7,0.5-4,0.4c-2.4,0-4.9,0.2-7.3,0.7c-3.1-1.1-6.8-0.1-9.7,1.6c-6.7,4.1-10.6,11.6-10.2,19.5
	c0.3,2.4,0.7,4.8,1.4,7.2l5.3,20.8c0.3,1.7,1,3.4,2,4.9c0.2,0.3,0.5,0.6,0.8,0.9c1,1.2,2.7,1.9,4.3,1.6c0.2,0,0.4-0.1,0.6-0.2
	c-0.2,2.2-0.6,4.4-1.3,6.5c-6.1,1.8-15,8-25.7,26C366.2,633.8,363.9,667.8,363.8,688.3z M451.1,673.6L451.1,673.6z"/>
<rect x="417" y="675.4" class="st21" width="59.8" height="42.9"/>
<path class="st21" d="M462,666c0,0,44.6-9.3,45.8,9.3s-26.3,56-26.3,56l-25-5.1l7.2-28.9c0,0-28.4-6.4-30.1-6.8S462,666,462,666z"/>
<path class="st22" d="M462,666c0,0,44.6-9.3,45.8,9.3s-26.3,56-26.3,56l-25-5.1l7.2-28.9c0,0-28.4-6.4-30.1-6.8S462,666,462,666z"/>
<path class="st21" d="M485.4,736.5c0,0-4.2,8.1-3,11.5s-30.1-4.7-30.1-4.7s2.5-9.8,2.1-11S485.4,736.5,485.4,736.5z"/>
<path class="st23" d="M457.8,681.3l3.1,2.8l2,1.8c0,0,10.2,16.5,23.3,6.4s-10.2-17.8-14.9-18.2c-1.9-0.3-3.5-1.5-4.4-3.2
	c-0.7-1.2-1.2-2.6-1.5-4L457.8,681.3z"/>
<path class="st12" d="M457.8,681.3l3.1,2.8l2,1.8c0,0,10.2,16.5,23.3,6.4s-10.2-17.8-14.9-18.2c-1.9-0.3-3.5-1.5-4.4-3.2
	c-0.7-1.2-1.2-2.6-1.5-4L457.8,681.3z"/>
<path class="st22" d="M485.4,736.5c0,0-4.2,8.1-3,11.5s-30.1-4.7-30.1-4.7s2.5-9.8,2.1-11S485.4,736.5,485.4,736.5z"/>
<path class="st4" d="M457.8,681.3l3.1,2.8c0-5.4,3.6-10.4,6.1-13.2c-0.7-1.2-1.2-2.6-1.5-4L457.8,681.3z"/>
<path class="st24" d="M439.1,638.5l29.3,29.3c0,0-10.2,8.9-8.1,18.2l-21.2-23.8L439.1,638.5z"/>
<path class="st25" d="M439.3,638.5v23.8l3.4,3.8l10.1,11.3l7.7,8.7c-2.1-9.3,8.1-18.2,8.1-18.2L439.3,638.5z"/>
<path class="st26" d="M439.1,596.4c0,0,0,8.9-7.6,6.4s-1.7,100.6-1.7,100.6s22.1-16.5,17.8-28.4s-5.1-20.8-4.7-32.7
	S439.1,596.4,439.1,596.4z"/>
<path class="st12" d="M438.7,572.7c0,0-6.4,17.4,0,30.6c6.4,13.2-37.8-7.2-37.8-7.2s9.8-4.7,6.4-27.2L438.7,572.7z"/>
<path class="st4" d="M442.5,652c-0.3,4.7-0.3,9.3,0,14l10.1,11.3c-1.5-3.2-3.1-6.2-5-9.2c-1.6-2.4-1.9-12.1-2-23.2l-3.7-3.7
	C442.3,647.3,442.5,652,442.5,652z"/>
<path class="st24" d="M435.9,594.1c-0.5-2.2,3.2,1.1,4.4,3.1l0.1,0.1c1.7,3,0.8,2.1,3.4,8.9s-0.8,56,3,62c2.6,4.2,4.9,8.6,6.8,13.2
	l-6.8-2.5c0,0-2.5-7.6-4.2-9.3s-0.8-17.4-0.8-17.4s-1.3-27.2-2.5-33.1C438.1,614.2,436.9,598.8,435.9,594.1z"/>
<path class="st25" d="M435.9,594.1c-0.5-2.2,3.2,1.1,4.4,3.1l0.1,0.1c1.7,3,0.8,2.1,3.4,8.9s-0.8,56,3,62c2.6,4.2,4.9,8.6,6.8,13.2
	l-6.8-2.5c0,0-2.5-7.6-4.2-9.3s-0.8-17.4-0.8-17.4s-1.3-27.2-2.5-33.1C438.1,614.2,436.9,598.8,435.9,594.1z"/>
<path class="st3" d="M426,700c0,0,67-2.5,75.5,15.3s-11.9,28.9-11.9,28.9s-28.4-8.9-34.8-7.6s-28.9-3.4-28.9-3.4L426,700z"/>
<path class="st12" d="M463.3,689c0,0,15.3-8.5,23.8-3s7.6,20.4-4.2,20.8s-18.2-6.8-18.2-6.8L463.3,689z"/>
<path class="st25" d="M415.3,588.4c0,0-13.6-9.3-33.5,25S367,706.7,367,706.7s14.9,0.8,14.4,14.8s57.7,17,57.7,17
	s-0.9-139.2-6.8-143S415.3,588.4,415.3,588.4z"/>
<path class="st4" d="M415.3,613.7c4.9,3.5,7.7,9.1,7.7,15.1c0.1,12.7,0.4,40.1,1.7,45.3c1.7,6.8,27.2,15.7,40.3,15.3
	c0,0,6.4,11.9-1.3,14.4s-54.3,0-54.3,0s-18.2-20.8-18.7-39s-3-38.6,0-42.4C393.2,619.1,403.4,605.3,415.3,613.7z"/>
<path class="st25" d="M416.1,612c4.9,3.5,7.8,9.1,7.8,15.1c0.1,12.7,0.4,40.1,1.7,45.3c1.7,6.8,27.2,15.7,40.3,15.3
	c0,0,6.4,11.9-1.3,14.4s-54.3,0-54.3,0s-18.2-20.8-18.7-39s-3-38.6,0-42.4C394,617.5,404.3,603.6,416.1,612z"/>
<path class="st27" d="M503.9,744.7c6.1,3,13.2,9.2-0.2,18.6c0,0-38.2,4.2-50.5-3.4s0-20,0-20s28.2,7.5,41.7,3.8
	C497.8,742.9,501.1,743.2,503.9,744.7z"/>
<path class="st4" d="M417.3,643.8c0,0,2.1,26.7,16.1,32.7"/>
<path class="st12" d="M438.3,575.7c-1.2,3.7-2.1,7.5-2.5,11.3c-2.7,0.9-6.6-1.4-9.6-1.4c-7.8,0-10-8.7-14.9-14c0-2.4-4,3.2-4.5,0.2
	L438.3,575.7z"/>
<path class="st12" d="M400.9,558.7c0,2.2,0.3,4.4,0.8,6.6l0.1,0.3c3.8,14.3,18.5,22.9,32.9,19.1c14.3-3.8,22.9-18.5,19.1-32.9
	s-18.5-22.9-32.9-19.1C409.1,535.9,400.9,546.5,400.9,558.7L400.9,558.7z"/>
<path class="st4" d="M381.8,613.8c2.8-4.9,5.9-9.5,9.5-13.9c-2.9,3.7-5.5,7.7-7.8,11.8c-20,34.4-14.9,93.4-14.9,93.4
	s14.9,0.8,14.4,14.8c-0.4,12.6,46.4,16.2,56,16.9c0,1.4,0,2.2,0,2.2s-58.1-3-57.7-17S367,707.2,367,707.2S361.9,648.2,381.8,613.8z"
	/>
<path class="st4" d="M404.3,528.1c2.8-1.7,6.3-2.7,9.4-1.6c2.3-0.4,4.7-0.6,7-0.6c1.3,0.1,2.6,0,3.8-0.4c0.9-0.4,1.8-0.9,2.7-1.4
	c4-2.1,8.3-1.3,12.5-0.8c3.4,0.4,9.1-0.8,11.1,3.1c0.6,1.1,0.4,2.4-0.5,3.3c-0.4,0.3-0.9,0.4-1.2,0.8c-0.3,0.6-0.3,1.2-0.1,1.8
	l2.8,14c-2.6,1.3-5.6,1.4-8.3,0.4c-0.8-0.3-1.5-0.6-2.2-1c-2.1,1.4-4.2,0.3-6.8,0.9c-1.5,0.4-2.8,1.3-3.8,2.5
	c-2.9,3.1-4.9,7.1-5.7,11.3c-0.3,1.6-0.6,3.5-2.2,4c-0.6,0.1-1.2,0.2-1.8,0.2c-2.8,0.4-3.9,3.7-5.7,5.8c-2.2,2.6-6.1,4.4-6.3,7.8
	c-0.1,0.9,0.1,1.8-0.4,2.6c-0.3,0.4-0.8,0.7-1.4,0.8c-1.7,0.2-3.5-0.5-4.5-2c-0.9-1.5-1.6-3.1-1.9-4.8l-5.2-20.5
	c-0.7-2.3-1.1-4.6-1.4-7C393.9,539.6,397.7,532.2,404.3,528.1z"/>
<path class="st28" d="M403.9,527.8c2.8-1.7,6.3-2.7,9.4-1.6c2.3-0.4,4.7-0.6,7-0.6c1.3,0.1,2.6,0,3.8-0.4c0.9-0.4,1.8-0.9,2.7-1.4
	c4-2.1,8.3-1.3,12.5-0.8c3.4,0.4,9.1-0.8,11.1,3.1c0.6,1.1,0.4,2.4-0.5,3.3c-0.4,0.3-0.9,0.4-1.2,0.8c-0.3,0.6-0.3,1.2-0.1,1.8
	l2.8,14c-2.6,1.3-5.6,1.4-8.3,0.4c-0.8-0.3-1.5-0.6-2.2-1c-2.1,1.4-4.2,0.3-6.8,0.9c-1.5,0.4-2.8,1.3-3.8,2.5
	c-2.9,3.1-4.9,7.1-5.7,11.3c-0.3,1.6-0.6,3.5-2.2,4c-0.6,0.1-1.2,0.2-1.8,0.2c-2.8,0.4-3.9,3.7-5.7,5.8c-2.2,2.6-6.1,4.4-6.3,7.8
	c-0.1,0.9,0.1,1.8-0.4,2.6c-0.3,0.4-0.8,0.7-1.4,0.8c-1.7,0.2-3.5-0.5-4.5-2c-0.9-1.5-1.6-3.1-1.9-4.8l-5.2-20.5
	c-0.7-2.3-1.1-4.6-1.4-7C393.5,539.2,397.3,531.9,403.9,527.8z"/>
<linearGradient id="SVGID_00000052787526545514850670000009212442734469639555_" gradientUnits="userSpaceOnUse" x1="166.3284" y1="616.3751" x2="316.2848" y2="616.3751" gradientTransform="matrix(-0.9355 -0.137 -0.1449 0.9894 1298.865 81.7333)">
	<stop  offset="0" style="stop-color:#808080;stop-opacity:0.25"/>
	<stop  offset="0.54" style="stop-color:#808080;stop-opacity:0.12"/>
	<stop  offset="1" style="stop-color:#808080;stop-opacity:0.1"/>
</linearGradient>
<path style="fill:url(#SVGID_00000052787526545514850670000009212442734469639555_);" d="M1047.1,715.4c-1.6,10.6-3.2,17.6-3.2,17.6
	s-14.5-1.3-16.2,12.9c-1.7,14.2-58.4,8.9-58.4,8.9s0-0.1,0.1-0.4l0,0c0,0,0.2-1.1,0.5-3.2c-5.5,0.1-11.3-0.1-14.5-0.9
	c0.1,1.1,0.1,2.3,0.2,3.4c0.2,0.3,4.6,6.6,3.6,12.5c-0.3,3-2.1,5.8-6.5,7.8c-13,5.6-49.4-3.9-49.4-3.9c-5-4.7-6.4-8.3-5.9-11
	c0.4-4.1,4.7-6.4,8.4-7.7c2.9-1,6.1-0.9,8.9,0.3c3.8,1.5,7.8,2.4,11.9,2.7c0-0.9-0.1-1.7-0.3-2.6c-4,0.6-6.7,1-6.7,1
	s-18.1-14-7.3-30.7c1.7-2.3,3.9-4.1,6.5-5c-4.6-12.5-8.7-27-6.7-36c3.2-15.1,31.4-7.6,41.9-4.2l23.8-18.4
	c2.3-15.8,4.5-34.1,6.5-37.8c3.5-6.5,2.5-5.7,4.6-8.5l0.1-0.1c1.2-1.5,4.1-3.6,4.7-3.2c0.7-3.1,1.2-6.3,1.3-9.5
	c-9.9-5.1-15.5-16.5-13.8-28.1c0.6-4.2,2.2-8.3,4.6-11.8l-0.3-0.2l4.8-13.7c0.3-0.6,0.3-1.2,0.1-1.8c-0.2-0.4-0.7-0.6-1-1
	c-0.7-1-0.7-2.4,0-3.4c0.3-0.5,0.7-0.9,1.2-1.2c2.7-2.4,7.4-0.7,10.4-0.7c4.1,0,8.5-0.1,12,2.6c0.7,0.7,1.5,1.3,2.4,1.8
	c1.2,0.5,2.4,0.8,3.7,0.9c2.3,0.3,4.5,0.9,6.7,1.6c3.1-0.7,6.4,0.8,8.8,2.9c5.7,5,8.3,13,6.7,20.7c-0.6,2.4-1.4,4.7-2.3,6.9l-8,19.9
	c-0.6,1.7-1.4,3.2-2.6,4.6c-0.3,0.3-0.6,0.5-0.9,0.7c-1.2,1.1-2.8,1.5-4.2,1c-0.2-0.1-0.4-0.2-0.5-0.3c-0.1,2.2-0.1,4.4,0.3,6.6
	c5.5,2.6,12.9,10,20.2,29.2C1052.8,661.2,1050,695.1,1047.1,715.4z M967.6,688.9L967.6,688.9z"/>
<rect x="946.7" y="684.1" transform="matrix(0.1449 -0.9894 0.9894 0.1449 122.9375 1567.1238)" class="st21" width="42.9" height="56.6"/>
<path class="st30" d="M958.5,679.9c0,0-40.3-15.3-44.2,3s16.5,59,16.5,59l24.1-1.6l-2.6-29.5c0,0,27.5-2.4,29.2-2.6
	C983.2,708,958.5,679.9,958.5,679.9z"/>
<path class="st21" d="M926.5,746.4c0,0,2.8,8.6,1.1,11.8c-1.7,3.2,28.9-0.5,28.9-0.5s-1-10-0.4-11.2
	C956.7,745.3,926.5,746.4,926.5,746.4z"/>
<path class="st23" d="M960.3,695.6l-3.3,2.4l-2.1,1.5c0,0-11.9,15-22.8,3.1c-10.8-11.9,12.1-16.2,16.6-16c1.8,0,3.5-1,4.6-2.6
	c0.8-1.1,1.5-2.4,2-3.7L960.3,695.6z"/>
<path class="st12" d="M960.3,695.6l-3.3,2.4l-2.1,1.5c0,0-11.9,15-22.8,3.1c-10.8-11.9,12.1-16.2,16.6-16c1.8,0,3.5-1,4.6-2.6
	c0.8-1.1,1.5-2.4,2-3.7L960.3,695.6z"/>
<path class="st30" d="M926.5,746.4c0,0,2.8,8.6,1.1,11.8c-1.7,3.2,28.9-0.5,28.9-0.5s-1-10-0.4-11.2
	C956.7,745.3,926.5,746.4,926.5,746.4z"/>
<path class="st4" d="M960.3,695.6l-3.3,2.4c0.8-5.4-1.9-10.8-3.8-13.9c0.9-1.1,1.5-2.4,2-3.7L960.3,695.6z"/>
<path class="st24" d="M983.9,655.8l-31.6,25c0,0,8.2,10.2,4.9,19.2l23.3-20.6L983.9,655.8z"/>
<path class="st31" d="M983.7,655.7l-3.4,23.5l-3.7,3.3l-11.1,9.8l-8.5,7.5c3.3-9-4.9-19.2-4.9-19.2L983.7,655.7z"/>
<path class="st32" d="M990,614.2c0,0-1.3,8.8,6.2,7.3s-13,99.8-13,99.8s-18.2-19.4-12.6-30.6c5.7-11.2,7.8-19.9,9.1-31.7
	S990,614.2,990,614.2z"/>
<path class="st12" d="M993.9,590.7c0,0,3.4,18.1-4.4,30.2c-7.9,12.1,36.4-2,36.4-2s-8.5-6-2-27.7L993.9,590.7z"/>
<path class="st4" d="M978.8,668.7c-0.4,4.6-1.1,9.3-2,13.9l-11.1,9.8c1.8-2.9,3.8-5.7,6-8.4c1.8-2.2,3.6-11.7,5.2-22.7l4-3.2
	C979.7,664,978.8,668.7,978.8,668.7z"/>
<path class="st24" d="M993.4,612.4c0.8-2.1-3.2,0.7-4.6,2.4l-0.1,0.1c-2,2.7-1.1,2-4.5,8.4c-3.4,6.4-7.3,55.5-11.8,60.9
	c-3,3.8-5.8,7.8-8.3,12.1l6.7-1.6c0,0,3.5-7.2,5.3-8.7s3.3-17.1,3.3-17.1s5.1-26.7,7.2-32.4C988.4,631.9,991.7,616.9,993.4,612.4z"
	/>
<path class="st31" d="M993.4,612.3c0.8-2.1-3.2,0.6-4.5,2.4l-0.1,0.1c-2,2.6-1.1,1.9-4.4,8.1c-3.3,6.2-7.1,53.9-11.5,59.2
	c-3,3.7-5.8,7.6-8.2,11.7l6.7-1.5c0,0,3.5-7,5.3-8.4c1.8-1.4,3.2-16.6,3.2-16.6s5-25.9,7-31.5C988.5,631.3,991.8,616.7,993.4,612.3z
	"/>
<path class="st33" d="M987.3,718.5c0,0-62.4-11.7-72.9,4.8s6.9,30.2,6.9,30.2s27.9-4.9,33.7-2.8s27.5,0.6,27.5,0.6L987.3,718.5z"/>
<path class="st12" d="M954,702.4c0,0-13.1-10.5-21.8-6.2s-10.1,19.1,1,21.2c11.1,2,18.1-4.2,18.1-4.2L954,702.4z"/>
<path class="st31" d="M1013.4,609.5c0,0,14.1-7.4,27.7,29.3s0.4,94.4,0.4,94.4s-14-1.2-15.7,12.7c-1.6,13.9-56.5,8.9-56.5,8.9
	s21-137.6,27.1-140.6C1002.6,611.3,1013.4,609.5,1013.4,609.5z"/>
<path class="st4" d="M1009.8,634.5c-5.1,2.8-8.6,8-9.4,13.9c-1.9,12.6-6.2,39.6-8.1,44.6c-2.6,6.5-27.7,11.8-39.9,9.6
	c0,0-7.7,10.9-0.9,14.5s50.8,7.4,50.8,7.4s20.1-18.1,23.1-36c3-18,8.4-37.8,6.2-42C1029.7,643,1022.1,627.9,1009.8,634.5z"/>
<path class="st31" d="M1009.3,632.7c-5.1,2.8-8.6,8-9.5,13.9c-1.9,12.6-6.2,39.6-8.1,44.6c-2.6,6.5-27.7,11.8-39.9,9.6
	c0,0-7.7,10.9-0.9,14.5c6.8,3.6,50.8,7.4,50.8,7.4s20.1-18.1,23.1-36s8.4-37.8,6.2-42C1029.1,641.2,1021.6,626.1,1009.3,632.7z"/>
<path class="st32" d="M908,752c-6.1,2.1-13.6,7.3-2.5,18.4c0,0,35.1,9.4,47.7,3.6c12.6-5.9,2.9-19.7,2.9-19.7s-27.4,3.6-39.6-1.9
	C913.9,751.1,910.8,751,908,752z"/>
<path class="st4" d="M1003.6,664c0,0-5.9,26.2-19.8,30.1"/>
<path class="st4" d="M993.8,593.7c0.6,3.8,0.9,7.7,0.7,11.6c2.4,1.3,6.4-0.4,9.2,0c7.3,1.1,10.6-7.2,15.9-11.8
	c0.3-2.3,3.3,3.7,4.1,0.8L993.8,593.7z"/>
<path class="st12" d="M1031.2,582.1c-0.3,2.2-0.9,4.3-1.7,6.4l-0.1,0.3c-5.6,13.7-20.6,20.1-33.5,14.4
	c-12.9-5.7-18.7-21.5-13.1-35.1c5.6-13.7,20.6-20.1,33.5-14.4C1026.9,558.4,1033,570,1031.2,582.1L1031.2,582.1z"/>
<path class="st4" d="M1041.1,639.3c-1.9-5.2-4.2-10.2-6.9-15c2.1,4.1,4,8.3,5.6,12.7c13.7,36.8,0.4,94.4,0.4,94.4s-14-1.2-15.7,12.7
	c-1.5,12.5-45.8,9.7-54.8,9c-0.2,1.4-0.3,2.2-0.3,2.2s54.8,5,56.5-8.9c1.6-13.9,15.7-12.7,15.7-12.7S1054.8,676,1041.1,639.3z"/>
<path class="st4" d="M1032.5,551.4c-2.4-2.1-5.5-3.5-8.5-2.8c-2.1-0.7-4.3-1.3-6.5-1.6c-1.2-0.1-2.4-0.4-3.5-0.9
	c-0.8-0.5-1.6-1.1-2.3-1.8c-3.4-2.6-7.6-2.4-11.6-2.5c-3.2,0-8.4-2-10.8,1.5c-0.7,1-0.7,2.3-0.1,3.3c0.3,0.3,0.8,0.5,1,0.9
	c0.2,0.6,0.1,1.3-0.1,1.8l-4.6,13.5c2.3,1.6,5.1,2.2,7.7,1.5c0.7-0.2,1.5-0.4,2.2-0.7c1.8,1.6,3.9,0.9,6.2,1.8
	c1.3,0.6,2.5,1.7,3.2,3c2.3,3.5,3.6,7.7,3.7,11.9c0,1.6,0.1,3.6,1.5,4.3c0.5,0.2,1.1,0.3,1.6,0.4c2.5,0.7,3.1,4.1,4.5,6.5
	c1.7,2.9,5.1,5.1,4.8,8.6c-0.1,0.9-0.4,1.8,0,2.6c0.2,0.5,0.7,0.8,1.2,1c1.6,0.5,3.3,0,4.5-1.4c1.1-1.3,1.9-2.8,2.5-4.5l7.8-19.6
	c0.9-2.2,1.7-4.4,2.3-6.7C1040.5,564.2,1038.1,556.3,1032.5,551.4z"/>
<path class="st34" d="M1032.9,551.1c-2.4-2.1-5.5-3.5-8.5-2.8c-2.1-0.7-4.3-1.3-6.5-1.6c-1.2-0.1-2.4-0.4-3.5-0.9
	c-0.8-0.5-1.6-1.1-2.3-1.8c-3.4-2.6-7.6-2.4-11.6-2.5c-3.2,0-8.4-2-10.8,1.5c-0.7,1-0.7,2.3-0.1,3.3c0.3,0.3,0.8,0.5,1,0.9
	c0.2,0.6,0.1,1.3-0.1,1.8l-4.6,13.5c2.3,1.6,5.1,2.2,7.7,1.5c0.7-0.2,1.5-0.4,2.2-0.7c1.8,1.6,3.9,0.9,6.2,1.8
	c1.3,0.6,2.5,1.7,3.2,3c2.3,3.5,3.6,7.7,3.7,11.9c0,1.6,0.1,3.6,1.5,4.3c0.5,0.2,1.1,0.3,1.6,0.4c2.5,0.7,3.1,4.1,4.5,6.5
	c1.7,2.9,5.1,5.1,4.8,8.6c-0.1,0.9-0.4,1.8,0,2.6c0.2,0.5,0.7,0.8,1.2,1c1.6,0.5,3.3,0,4.5-1.4c1.1-1.3,1.9-2.8,2.5-4.5l7.8-19.6
	c0.9-2.2,1.7-4.4,2.3-6.7C1041,563.8,1038.5,556,1032.9,551.1z"/>
</svg>
