<?xml version="1.0" encoding="UTF-8" standalone="no"?>
<!DOCTYPE svg PUBLIC "-//W3C//DTD SVG 1.1//EN" "http://www.w3.org/Graphics/SVG/1.1/DTD/svg11.dtd">
<svg width="100%" height="100%" viewBox="0 0 783 1944" version="1.1" xmlns="http://www.w3.org/2000/svg" xmlns:xlink="http://www.w3.org/1999/xlink" xml:space="preserve" xmlns:serif="http://www.serif.com/" style="fill-rule:evenodd;clip-rule:evenodd;stroke-linejoin:round;stroke-miterlimit:2;">
    <g transform="matrix(1,0,0,1,-991.237,-4670.92)">
        <g transform="matrix(1,0,0,1,-13.0848,1194.21)">
            <g transform="matrix(1,0,0,1,13.0848,-1194.21)">
                <rect x="991.237" y="4670.92" width="782.292" height="1943.47" style="fill:none;"/>
                <clipPath id="_clip1">
                    <rect x="991.237" y="4670.92" width="782.292" height="1943.47"/>
                </clipPath>
                <g clip-path="url(#_clip1)">
                    <g id="berg2" transform="matrix(1.00137,0,0,1,-110.539,4769.01)">
                        <rect x="1100.09" y="0" width="781.25" height="1711.12" style="fill:none;"/>
                        <clipPath id="_clip2">
                            <rect x="1100.09" y="0" width="781.25" height="1711.12"/>
                        </clipPath>
                        <g clip-path="url(#_clip2)">
                            <g id="bergje2" transform="matrix(1,0,0,1,1100.09,1.42109e-14)">
                                <path d="M-0.959,991.827C-0.959,991.827 179.99,994.189 254.393,1012.93C328.797,1031.67 402.775,1047.06 452.451,1058.27C503.455,1069.77 608.545,1094.37 633.752,1104.94C643.793,1109.15 781.446,1159.1 781.4,1192.7C781.283,1277.39 781.4,1392.18 781.4,1392.18L0,1392.18L-0.959,991.827Z" style="fill:rgb(112,220,125);"/>
                                <clipPath id="_clip3">
                                    <path d="M-0.959,991.827C-0.959,991.827 179.99,994.189 254.393,1012.93C328.797,1031.67 402.775,1047.06 452.451,1058.27C503.455,1069.77 608.545,1094.37 633.752,1104.94C643.793,1109.15 781.446,1159.1 781.4,1192.7C781.283,1277.39 781.4,1392.18 781.4,1392.18L0,1392.18L-0.959,991.827Z"/>
                                </clipPath>
                                <g clip-path="url(#_clip3)">
                                    <g id="Layer15">
                                        <g transform="matrix(1.57473,0,0,1.41546,-256.054,-538.854)">
                                            <path d="M181.679,1107.85C181.679,1107.85 182.95,1099.93 185.966,1101.03C188.981,1102.13 189.617,1104.2 189.617,1104.2C189.617,1104.2 191.181,1099.38 193.902,1099.19C196.624,1099.01 199.205,1100.14 200.086,1103.83C200.966,1107.52 200.016,1108.32 200.016,1108.32L181.679,1107.85Z" style="fill:rgb(80,206,95);"/>
                                        </g>
                                        <g transform="matrix(0.83889,0,0,0.594383,-70.8666,391.453)">
                                            <path d="M181.679,1107.85C181.679,1107.85 182.95,1099.93 185.966,1101.03C188.981,1102.13 189.617,1104.2 189.617,1104.2C189.617,1104.2 191.181,1099.38 193.902,1099.19C196.624,1099.01 199.205,1100.14 200.086,1103.83C200.966,1107.52 200.016,1108.32 200.016,1108.32L181.679,1107.85Z" style="fill:rgb(80,206,95);"/>
                                        </g>
                                        <g transform="matrix(0.882805,0,0,0.712551,-60.267,453.885)">
                                            <path d="M181.679,1107.85C181.679,1107.85 182.95,1099.93 185.966,1101.03C188.981,1102.13 189.617,1104.2 189.617,1104.2C189.617,1104.2 191.181,1099.38 193.902,1099.19C196.624,1099.01 199.205,1100.14 200.086,1103.83C200.966,1107.52 200.016,1108.32 200.016,1108.32L181.679,1107.85Z" style="fill:rgb(78,205,93);"/>
                                        </g>
                                        <g transform="matrix(1.57473,0,0,1.41546,-49.5817,-510.15)">
                                            <path d="M181.679,1107.85C181.679,1107.85 182.95,1099.93 185.966,1101.03C188.981,1102.13 189.617,1104.2 189.617,1104.2C189.617,1104.2 191.181,1099.38 193.902,1099.19C196.624,1099.01 199.205,1100.14 200.086,1103.83C200.966,1107.52 200.016,1108.32 200.016,1108.32L181.679,1107.85Z" style="fill:rgb(80,206,95);"/>
                                        </g>
                                        <g transform="matrix(0.842016,0,0,0.679628,100.719,363.576)">
                                            <path d="M181.679,1107.85C181.679,1107.85 182.95,1099.93 185.966,1101.03C188.981,1102.13 189.617,1104.2 189.617,1104.2C189.617,1104.2 191.181,1099.38 193.902,1099.19C196.624,1099.01 199.205,1100.14 200.086,1103.83C200.966,1107.52 200.016,1108.32 200.016,1108.32L181.679,1107.85Z" style="fill:rgb(78,205,93);"/>
                                        </g>
                                        <g transform="matrix(0.882805,0,0,0.712551,146.206,482.589)">
                                            <path d="M181.679,1107.85C181.679,1107.85 182.95,1099.93 185.966,1101.03C188.981,1102.13 189.617,1104.2 189.617,1104.2C189.617,1104.2 191.181,1099.38 193.902,1099.19C196.624,1099.01 199.205,1100.14 200.086,1103.83C200.966,1107.52 200.016,1108.32 200.016,1108.32L181.679,1107.85Z" style="fill:rgb(78,205,93);"/>
                                        </g>
                                        <g transform="matrix(1.57473,0,0,1.41546,-128.521,-434.095)">
                                            <path d="M181.679,1107.85C181.679,1107.85 182.95,1099.93 185.966,1101.03C188.981,1102.13 189.617,1104.2 189.617,1104.2C189.617,1104.2 191.181,1099.38 193.902,1099.19C196.624,1099.01 199.205,1100.14 200.086,1103.83C200.966,1107.52 200.016,1108.32 200.016,1108.32L181.679,1107.85Z" style="fill:rgb(80,206,95);"/>
                                        </g>
                                        <g transform="matrix(0.842016,0,0,0.679628,21.78,439.632)">
                                            <path d="M181.679,1107.85C181.679,1107.85 182.95,1099.93 185.966,1101.03C188.981,1102.13 189.617,1104.2 189.617,1104.2C189.617,1104.2 191.181,1099.38 193.902,1099.19C196.624,1099.01 199.205,1100.14 200.086,1103.83C200.966,1107.52 200.016,1108.32 200.016,1108.32L181.679,1107.85Z" style="fill:rgb(78,205,93);"/>
                                        </g>
                                        <g transform="matrix(0.882805,0,0,0.712551,67.2662,558.645)">
                                            <path d="M181.679,1107.85C181.679,1107.85 182.95,1099.93 185.966,1101.03C188.981,1102.13 189.617,1104.2 189.617,1104.2C189.617,1104.2 191.181,1099.38 193.902,1099.19C196.624,1099.01 199.205,1100.14 200.086,1103.83C200.966,1107.52 200.016,1108.32 200.016,1108.32L181.679,1107.85Z" style="fill:rgb(78,205,93);"/>
                                        </g>
                                        <g transform="matrix(0.842016,0,0,0.679628,-139.267,381.111)">
                                            <path d="M181.679,1107.85C181.679,1107.85 182.95,1099.93 185.966,1101.03C188.981,1102.13 189.617,1104.2 189.617,1104.2C189.617,1104.2 191.181,1099.38 193.902,1099.19C196.624,1099.01 199.205,1100.14 200.086,1103.83C200.966,1107.52 200.016,1108.32 200.016,1108.32L181.679,1107.85Z" style="fill:rgb(78,205,93);"/>
                                        </g>
                                        <g transform="matrix(1.57473,0,0,1.41546,-128.521,-434.095)">
                                            <path d="M181.679,1107.85C181.679,1107.85 182.95,1099.93 185.966,1101.03C188.981,1102.13 189.617,1104.2 189.617,1104.2C189.617,1104.2 191.181,1099.38 193.902,1099.19C196.624,1099.01 199.205,1100.14 200.086,1103.83C200.966,1107.52 200.016,1108.32 200.016,1108.32L181.679,1107.85Z" style="fill:rgb(80,206,95);"/>
                                        </g>
                                    </g>
                                    <g id="Layer151" serif:id="Layer15" transform="matrix(0.91273,0,0,0.91273,304.023,156.118)">
                                        <g transform="matrix(1.57473,0,0,1.41546,-256.054,-538.854)">
                                            <path d="M181.679,1107.85C181.679,1107.85 182.95,1099.93 185.966,1101.03C188.981,1102.13 189.617,1104.2 189.617,1104.2C189.617,1104.2 191.181,1099.38 193.902,1099.19C196.624,1099.01 199.205,1100.14 200.086,1103.83C200.966,1107.52 200.016,1108.32 200.016,1108.32L181.679,1107.85Z" style="fill:rgb(80,206,95);"/>
                                        </g>
                                        <g transform="matrix(0.83889,0,0,0.594383,-70.8666,391.453)">
                                            <path d="M181.679,1107.85C181.679,1107.85 182.95,1099.93 185.966,1101.03C188.981,1102.13 189.617,1104.2 189.617,1104.2C189.617,1104.2 191.181,1099.38 193.902,1099.19C196.624,1099.01 199.205,1100.14 200.086,1103.83C200.966,1107.52 200.016,1108.32 200.016,1108.32L181.679,1107.85Z" style="fill:rgb(80,206,95);"/>
                                        </g>
                                        <g transform="matrix(0.882805,0,0,0.712551,-60.267,453.885)">
                                            <path d="M181.679,1107.85C181.679,1107.85 182.95,1099.93 185.966,1101.03C188.981,1102.13 189.617,1104.2 189.617,1104.2C189.617,1104.2 191.181,1099.38 193.902,1099.19C196.624,1099.01 199.205,1100.14 200.086,1103.83C200.966,1107.52 200.016,1108.32 200.016,1108.32L181.679,1107.85Z" style="fill:rgb(78,205,93);"/>
                                        </g>
                                        <g transform="matrix(1.57473,0,0,1.41546,-49.5817,-510.15)">
                                            <path d="M181.679,1107.85C181.679,1107.85 182.95,1099.93 185.966,1101.03C188.981,1102.13 189.617,1104.2 189.617,1104.2C189.617,1104.2 191.181,1099.38 193.902,1099.19C196.624,1099.01 199.205,1100.14 200.086,1103.83C200.966,1107.52 200.016,1108.32 200.016,1108.32L181.679,1107.85Z" style="fill:rgb(80,206,95);"/>
                                        </g>
                                        <g transform="matrix(0.842016,0,0,0.679628,100.719,363.576)">
                                            <path d="M181.679,1107.85C181.679,1107.85 182.95,1099.93 185.966,1101.03C188.981,1102.13 189.617,1104.2 189.617,1104.2C189.617,1104.2 191.181,1099.38 193.902,1099.19C196.624,1099.01 199.205,1100.14 200.086,1103.83C200.966,1107.52 200.016,1108.32 200.016,1108.32L181.679,1107.85Z" style="fill:rgb(78,205,93);"/>
                                        </g>
                                        <g transform="matrix(0.882805,0,0,0.712551,146.206,482.589)">
                                            <path d="M181.679,1107.85C181.679,1107.85 182.95,1099.93 185.966,1101.03C188.981,1102.13 189.617,1104.2 189.617,1104.2C189.617,1104.2 191.181,1099.38 193.902,1099.19C196.624,1099.01 199.205,1100.14 200.086,1103.83C200.966,1107.52 200.016,1108.32 200.016,1108.32L181.679,1107.85Z" style="fill:rgb(78,205,93);"/>
                                        </g>
                                        <g transform="matrix(1.57473,0,0,1.41546,-128.521,-434.095)">
                                            <path d="M181.679,1107.85C181.679,1107.85 182.95,1099.93 185.966,1101.03C188.981,1102.13 189.617,1104.2 189.617,1104.2C189.617,1104.2 191.181,1099.38 193.902,1099.19C196.624,1099.01 199.205,1100.14 200.086,1103.83C200.966,1107.52 200.016,1108.32 200.016,1108.32L181.679,1107.85Z" style="fill:rgb(80,206,95);"/>
                                        </g>
                                        <g transform="matrix(0.842016,0,0,0.679628,21.78,439.632)">
                                            <path d="M181.679,1107.85C181.679,1107.85 182.95,1099.93 185.966,1101.03C188.981,1102.13 189.617,1104.2 189.617,1104.2C189.617,1104.2 191.181,1099.38 193.902,1099.19C196.624,1099.01 199.205,1100.14 200.086,1103.83C200.966,1107.52 200.016,1108.32 200.016,1108.32L181.679,1107.85Z" style="fill:rgb(78,205,93);"/>
                                        </g>
                                        <g transform="matrix(0.882805,0,0,0.712551,67.2662,558.645)">
                                            <path d="M181.679,1107.85C181.679,1107.85 182.95,1099.93 185.966,1101.03C188.981,1102.13 189.617,1104.2 189.617,1104.2C189.617,1104.2 191.181,1099.38 193.902,1099.19C196.624,1099.01 199.205,1100.14 200.086,1103.83C200.966,1107.52 200.016,1108.32 200.016,1108.32L181.679,1107.85Z" style="fill:rgb(78,205,93);"/>
                                        </g>
                                        <g transform="matrix(0.842016,0,0,0.679628,-139.267,381.111)">
                                            <path d="M181.679,1107.85C181.679,1107.85 182.95,1099.93 185.966,1101.03C188.981,1102.13 189.617,1104.2 189.617,1104.2C189.617,1104.2 191.181,1099.38 193.902,1099.19C196.624,1099.01 199.205,1100.14 200.086,1103.83C200.966,1107.52 200.016,1108.32 200.016,1108.32L181.679,1107.85Z" style="fill:rgb(78,205,93);"/>
                                        </g>
                                        <g transform="matrix(1.57473,0,0,1.41546,-128.521,-434.095)">
                                            <path d="M181.679,1107.85C181.679,1107.85 182.95,1099.93 185.966,1101.03C188.981,1102.13 189.617,1104.2 189.617,1104.2C189.617,1104.2 191.181,1099.38 193.902,1099.19C196.624,1099.01 199.205,1100.14 200.086,1103.83C200.966,1107.52 200.016,1108.32 200.016,1108.32L181.679,1107.85Z" style="fill:rgb(80,206,95);"/>
                                        </g>
                                        <g transform="matrix(1.57473,0,0,1.41546,61.2247,-464.551)">
                                            <path d="M181.679,1107.85C181.679,1107.85 182.95,1099.93 185.966,1101.03C188.981,1102.13 189.617,1104.2 189.617,1104.2C189.617,1104.2 191.181,1099.38 193.902,1099.19C196.624,1099.01 199.205,1100.14 200.086,1103.83C200.966,1107.52 200.016,1108.32 200.016,1108.32L181.679,1107.85Z" style="fill:rgb(80,206,95);"/>
                                        </g>
                                    </g>
                                </g>
                            </g>
                        </g>
                    </g>
                </g>
            </g>
        </g>
    </g>
</svg>
