<?xml version="1.0" encoding="UTF-8" standalone="no"?>
<!DOCTYPE svg PUBLIC "-//W3C//DTD SVG 1.1//EN" "http://www.w3.org/Graphics/SVG/1.1/DTD/svg11.dtd">
<svg width="100%" height="100%" viewBox="0 0 783 1944" version="1.1" xmlns="http://www.w3.org/2000/svg" xmlns:xlink="http://www.w3.org/1999/xlink" xml:space="preserve" xmlns:serif="http://www.serif.com/" style="fill-rule:evenodd;clip-rule:evenodd;stroke-linecap:round;stroke-linejoin:round;stroke-miterlimit:1.5;">
    <g transform="matrix(1,0,0,1,-991.237,-4670.92)">
        <g transform="matrix(1,0,0,1,-13.0848,1194.21)">
            <g id="bergje3" transform="matrix(0.965133,0,0,1,1049.98,3425.34)">
                <g transform="matrix(1,0,0,1,-15.5707,-106.206)">
                    <g id="Layer2">
                        <path d="M777.97,1083.49C777.97,1083.49 712.653,1089.95 657.5,1093.42C604.542,1096.76 541.125,1111.42 472.274,1123.52C402.178,1135.83 244.061,1204.62 188.298,1241.29C155.88,1262.61 116.471,1288.54 77.813,1318.58C49.973,1340.21 -7.006,1390.36 -31.176,1416.07C-31.176,1416.07 -29.98,1452.48 -31.176,1488.41C-31.396,1495.03 -32.332,1544.33 -31.176,1544.29C127.661,1538.7 778.297,1509.69 777.97,1477.59C777.629,1444.17 777.676,1402.78 777.97,1352.68C778.702,1227.57 777.97,1083.49 777.97,1083.49Z" style="fill:rgb(121,188,128);"/>
                    </g>
                </g>
                <g id="Layer22" transform="matrix(1.52095,-3.53169e-19,-3.53169e-19,1.50967,-153.19,-327.088)">
                    <g transform="matrix(1,0,0,1,1.9626,-0.340587)">
                        <path d="M473.511,997.871C473.511,997.871 530.939,982.126 559.865,970.545C588.791,958.964 606.507,949.758 598.753,936.056C591,922.354 577.416,920.415 569.249,916.876C561.081,913.338 541.974,910.316 536.09,909.588C530.205,908.86 524.922,905.478 524.264,902.101C523.606,898.725 510.735,892.397 495.674,888.118C474.943,882.229 435.174,883.996 435.174,883.996C435.174,883.996 493.344,889.251 502.347,894.813C511.35,900.375 509.515,899.938 511.493,904.399C513.471,908.86 518.666,909.244 526.557,912.587C534.448,915.931 566.715,924.372 568.965,930.758C571.216,937.143 567.837,942.192 553.146,946.738C538.455,951.285 491.089,963.835 481.186,964.513C471.282,965.191 426.878,973.375 417.144,973.997C407.409,974.618 381.653,979.292 379.457,980.017C378.558,980.314 394.717,982.739 413.984,986.925C441.12,992.821 473.619,997.082 473.511,997.871Z" style="fill:rgb(204,255,185);fill-opacity:0.16;"/>
                    </g>
                    <g transform="matrix(0.657486,1.53811e-19,1.53811e-19,0.662397,-634.594,271.76)">
                        <path d="M1546.35,1068.46C1546.35,1068.46 1409.83,1116.47 1676.68,1208.11L1881.46,1203.87L1880.77,1148.7C1880.77,1148.7 1644.67,1131.26 1690.02,1095.25L1546.35,1068.46Z" style="fill:rgb(135,199,137);"/>
                    </g>
                </g>
                <g id="Layer23" transform="matrix(1.52095,-3.57916e-19,-3.53169e-19,1.52996,-153.19,-344.988)">
                    <g transform="matrix(1,0,0,1,1.9626,-0.340587)">
                        <rect x="439.8" y="968.038" width="0.055" height="0.008" style="fill:rgb(62,79,102);"/>
                    </g>
                    <g transform="matrix(1,0,0,1,1.9626,-0.340587)">
                        <rect x="449.158" y="959.644" width="0.367" height="0.062" style="fill:rgb(62,79,102);"/>
                    </g>
                    <g transform="matrix(1,0,0,1,83.8884,-9.01375)">
                        <rect x="355.572" y="967.162" width="3.596" height="17.529" style="fill:rgb(62,79,102);"/>
                    </g>
                    <g transform="matrix(1,0,0,1,28.6456,-5.01377)">
                        <rect x="355.572" y="967.162" width="3.596" height="17.529" style="fill:rgb(62,79,102);"/>
                    </g>
                    <g transform="matrix(1.05127,-1.32148e-19,1.31168e-19,1.61615,-16.4889,-583.575)">
                        <rect x="355.572" y="967.162" width="3.596" height="17.529" style="fill:rgb(62,79,102);"/>
                    </g>
                    <g transform="matrix(1.19553,-5.86319e-20,5.81972e-20,1.44615,-42.9794,-389.14)">
                        <rect x="355.572" y="967.162" width="3.596" height="17.529" style="fill:rgb(62,79,102);"/>
                    </g>
                    <g transform="matrix(1.33165,-9.9797e-20,9.90571e-20,1.75824,-31.8667,-666.344)">
                        <rect x="355.572" y="967.162" width="3.596" height="17.529" style="fill:rgb(62,79,102);"/>
                    </g>
                    <g transform="matrix(1.27555,-7.64163e-20,7.58498e-20,1.6022,90.9289,-500.013)">
                        <rect x="355.572" y="967.162" width="3.596" height="17.529" style="fill:rgb(62,79,102);"/>
                    </g>
                    <g transform="matrix(1,0,0,1,124.431,-17.145)">
                        <rect x="355.572" y="967.162" width="3.596" height="17.529" style="fill:rgb(62,79,102);"/>
                    </g>
                    <g transform="matrix(1,0,0,1,158.83,-23.4248)">
                        <rect x="355.572" y="967.162" width="3.596" height="17.529" style="fill:rgb(62,79,102);"/>
                    </g>
                    <g transform="matrix(0.826301,0,0,1,250.049,-28.5306)">
                        <rect x="355.572" y="967.162" width="3.596" height="17.529" style="fill:rgb(62,79,102);"/>
                    </g>
                    <g transform="matrix(0.633037,0,0,1,336.605,-33.2601)">
                        <rect x="355.572" y="967.162" width="3.596" height="17.529" style="fill:rgb(62,79,102);"/>
                    </g>
                    <g transform="matrix(0.633037,0,0,1,346.295,-37.765)">
                        <rect x="355.572" y="967.162" width="3.596" height="17.529" style="fill:rgb(62,79,102);"/>
                    </g>
                    <g transform="matrix(0.433754,0,0,0.381311,413.999,552.776)">
                        <rect x="355.572" y="967.162" width="3.596" height="17.529" style="fill:rgb(62,79,102);"/>
                    </g>
                    <g transform="matrix(0.433754,0,0,0.381311,406.777,549.104)">
                        <rect x="355.572" y="967.162" width="3.596" height="17.529" style="fill:rgb(62,79,102);"/>
                    </g>
                    <g transform="matrix(0.433754,0,0,0.381311,399.198,545.95)">
                        <rect x="355.572" y="967.162" width="3.596" height="17.529" style="fill:rgb(62,79,102);"/>
                    </g>
                    <g transform="matrix(0.433754,0,0,0.381311,390.892,543.623)">
                        <rect x="355.572" y="967.162" width="3.596" height="17.529" style="fill:rgb(62,79,102);"/>
                    </g>
                    <g transform="matrix(0.433754,0,0,0.381311,380.679,541.696)">
                        <rect x="355.572" y="967.162" width="3.596" height="17.529" style="fill:rgb(62,79,102);"/>
                    </g>
                    <g transform="matrix(0.390809,0,0,0.318978,385.208,598.879)">
                        <rect x="355.572" y="967.162" width="3.596" height="17.529" style="fill:rgb(62,79,102);"/>
                    </g>
                    <g transform="matrix(0.414115,0,0,0.311439,358.574,591.137)">
                        <rect x="355.572" y="967.162" width="3.596" height="17.529" style="fill:rgb(62,79,102);"/>
                    </g>
                    <g transform="matrix(0.414115,0,0,0.311439,350.126,586.836)">
                        <rect x="355.572" y="967.162" width="3.596" height="17.529" style="fill:rgb(62,79,102);"/>
                    </g>
                    <g transform="matrix(0.433754,0,0,0.381311,357.215,531.53)">
                        <rect x="355.572" y="967.162" width="3.596" height="17.529" style="fill:rgb(62,79,102);"/>
                    </g>
                    <g transform="matrix(1,0,0,1,1.9626,-0.340587)">
                        <path d="M383.068,968.613C390.862,968.043 397.685,968.082 405.543,967.62C414.818,967.076 424.412,967.659 433.464,966.15C463.699,961.111 493.702,956.278 523.151,948.916C535.203,945.903 547.926,946.199 558.066,941.129C560.708,939.808 569.945,937.557 569.945,935.063" style="fill:none;stroke:rgb(62,79,102);stroke-width:0.81px;"/>
                    </g>
                    <g transform="matrix(0.657486,1.53811e-19,1.53811e-19,0.662397,-634.594,271.76)">
                        <path d="M1551.98,1050.85C1552.36,1050.68 1552.81,1050.84 1552.98,1051.21C1553.15,1051.57 1552.98,1052 1552.6,1052.16C1552.6,1052.16 1548.01,1054.14 1538.48,1058.95C1533.03,1061.7 1525.35,1065.64 1519.56,1070.3C1515.81,1073.33 1512.84,1076.64 1511.89,1080.14C1510.66,1084.69 1513.12,1089.89 1517.27,1095.08C1527.24,1107.57 1547.11,1119.85 1552.64,1122.59C1560.6,1126.53 1637.8,1157.91 1644.5,1161.13C1645.83,1161.76 1652.52,1163.23 1663.07,1165.17C1705.7,1172.99 1810.72,1188 1881.05,1183.55C1881.46,1183.52 1881.82,1183.82 1881.85,1184.22C1881.88,1184.62 1881.56,1184.96 1881.15,1184.98C1810.7,1189.44 1705.49,1174.42 1662.79,1166.58C1652.01,1164.61 1645.18,1163.06 1643.82,1162.41C1637.12,1159.2 1559.9,1127.81 1551.94,1123.87C1546.33,1121.09 1526.18,1108.62 1516.06,1095.95C1511.59,1090.35 1509.1,1084.69 1510.43,1079.78C1511.44,1076.03 1514.56,1072.44 1518.58,1069.2C1524.46,1064.47 1532.24,1060.47 1537.77,1057.67C1547.36,1052.84 1551.98,1050.85 1551.98,1050.85Z" style="fill:rgb(62,79,102);"/>
                    </g>
                    <g transform="matrix(1,0,-4.81482e-35,0.966348,2.27692,28.9444)">
                        <path d="M570.521,932.849C570.598,932.884 570.47,930.908 570.47,930.465C570.47,928.338 568.933,926.736 566.824,925.618C565.393,924.859 563.77,923.873 562.135,923.328C556.628,921.493 552.455,918.248 546.753,916.823C545.536,916.518 543.493,915.719 542.282,915.315C539.154,914.273 535.757,913.983 532.475,913.163C528.639,912.204 525.101,910.631 521.353,909.694C519.368,909.198 517.534,907.7 516.001,906.934C514.127,905.997 511.463,903.595 509.742,902.832C508.031,902.074 507.64,900.157 506.856,898.628C506.324,897.592 506.034,895.822 505.088,895.104C503.011,893.527 499.644,892.597 497.673,891.396C496.889,890.919 496.097,890.081 495.161,890.081" style="fill:none;stroke:rgb(62,79,102);stroke-width:0.42px;"/>
                    </g>
                    <g transform="matrix(1,0,0,1,1.9626,-0.340587)">
                        <path d="M384.053,975.861C396.649,975.398 397.81,974.876 409.817,974.156C420.06,973.541 431.436,972.79 441.515,970.774C457.051,967.667 472.026,965.367 487.354,961.535C492.096,960.35 498.102,959.257 502.969,958.414C510.194,957.163 516.756,956.214 523.779,954.276C536.161,950.859 548.372,949.758 560.095,945.85C562.364,945.094 570.166,944.201 570.166,941.067" style="fill:none;stroke:rgb(62,79,102);stroke-width:0.87px;"/>
                    </g>
                    <g transform="matrix(0.994479,-3.48476e-22,3.45892e-22,0.995969,5.10887,3.41313)">
                        <path d="M569.65,931.104C570.207,931.065 569.506,930.484 569.506,930.015C569.506,928.859 568.648,927.701 567.675,927.214C565.011,925.883 562.588,924.914 559.805,923.495C559.17,923.171 557.752,922.511 557.119,922.152C555.213,921.071 552.764,920.283 551.212,919.46C549.566,918.588 547.872,918.277 546.463,917.839C543.653,916.965 541.219,916.384 537.268,915.416C536.161,915.145 533.604,914.96 532.562,914.613C529.771,913.682 527.115,912.919 524.233,912.079C523.476,911.858 521.487,911.2 520.93,910.951C520.088,910.575 518.161,909.89 517.268,909.443C514.483,908.051 512.149,906.82 509.62,905.134" style="fill:none;stroke:rgb(62,79,102);stroke-width:0.42px;"/>
                    </g>
                    <g transform="matrix(1.14726,1.1267e-20,-1.11835e-20,1.0991,-72.3371,-89.2486)">
                        <path d="M504.541,897.156C505.605,897.227 506.258,898.905 506.614,899.617C507.552,901.492 508.457,902.258 509.4,904.145" style="fill:none;stroke:rgb(62,79,102);stroke-width:0.37px;"/>
                    </g>
                    <g transform="matrix(1,0,0,1,1.9626,-0.340587)">
                        <path d="M495.914,892.043C496.311,891.899 497.341,892.573 497.794,892.771C498.604,893.125 499.496,893.583 500.237,893.925C500.86,894.213 501.39,894.483 501.975,894.821C502.585,895.174 503.436,895.872 503.912,895.872" style="fill:none;stroke:rgb(62,79,102);stroke-width:0.42px;"/>
                    </g>
                    <g transform="matrix(0.299754,-5.44665e-21,4.75262e-21,0.28398,376.834,611.035)">
                        <rect x="355.572" y="967.162" width="3.596" height="17.529" style="fill:rgb(62,79,102);"/>
                    </g>
                    <g transform="matrix(0.262038,-8.87843e-21,7.74711e-21,0.26372,376.166,628.643)">
                        <rect x="355.572" y="967.162" width="3.596" height="17.529" style="fill:rgb(62,79,102);"/>
                    </g>
                    <g transform="matrix(0.146012,-1.7449e-20,1.52256e-20,0.193928,403.431,695.064)">
                        <rect x="355.572" y="967.162" width="3.596" height="17.529" style="fill:rgb(62,79,102);"/>
                    </g>
                    <g transform="matrix(0.1211,-6.74092e-21,5.88197e-21,0.13179,400.196,754.707)">
                        <rect x="355.572" y="967.162" width="3.596" height="17.529" style="fill:rgb(62,79,102);"/>
                    </g>
                    <g transform="matrix(0.657486,1.53811e-19,1.53811e-19,0.662397,88.7008,271.76)">
                        <path d="M622.379,932.747C622.381,932.746 621.3,932.185 620.851,931.915C619.729,931.242 618.541,931.374 617.267,931.119C613.527,930.371 610.603,930.039 606.804,929.617C600.906,928.962 595.204,927.652 589.292,927.061C585.449,926.677 580.538,926.164 576.744,925.742C574.315,925.472 572.625,925.145 570.006,924.929C567.747,924.742 563.55,924.323 560.675,924.099C559.841,924.034 554.519,923.352 548.422,922.899C543.902,922.563 539.805,922.75 539.805,922.665" style="fill:none;stroke:rgb(62,79,102);stroke-width:0.63px;"/>
                    </g>
                    <g transform="matrix(0.657486,1.53811e-19,1.53811e-19,0.662397,88.7008,271.76)">
                        <path d="M623.424,937.09C621.798,935.195 617.171,934.573 614.888,933.95C611.984,933.158 610.587,933.351 607.509,932.911C594.055,930.989 582.786,928.509 569.212,927.464C567.057,927.299 565.002,927.177 562.876,926.873C562.174,926.772 555.263,925.826 548.825,925.108C544.698,924.648 540.12,924.288 539.618,924.288" style="fill:none;stroke:rgb(62,79,102);stroke-width:0.63px;"/>
                    </g>
                    <g transform="matrix(0.657486,1.53811e-19,1.53811e-19,0.662397,-634.594,271.76)">
                        <path d="M1552.71,1062.18C1553.06,1062.41 1553.15,1062.85 1552.92,1063.18C1552.69,1063.51 1552.22,1063.6 1552.29,1063.5L1551.88,1063.38L1551.91,1063.4C1551.91,1063.4 1551.05,1063.12 1549.18,1063.65C1545.47,1064.7 1538.06,1068.53 1524.1,1081C1518.16,1086.3 1518.48,1085.72 1513.1,1092.38C1511.03,1094.93 1512.06,1096.72 1513.21,1100.03C1515.18,1105.66 1520.68,1112.78 1526.84,1119.5C1536.12,1129.65 1546.92,1138.88 1549.55,1140.67C1558.26,1146.59 1627.4,1172.79 1644.45,1179.58C1661.5,1186.37 1792.56,1205.62 1800.3,1205.76C1808.04,1205.91 1880.75,1203.59 1880.75,1203.59C1881.16,1203.58 1881.51,1203.89 1881.53,1204.29C1881.54,1204.68 1881.21,1205.02 1880.8,1205.03C1880.8,1205.03 1808.02,1207.35 1800.27,1207.2C1792.51,1207.06 1660.98,1187.73 1643.87,1180.91C1626.76,1174.1 1557.41,1147.79 1548.67,1141.84C1546.01,1140.03 1535.09,1130.71 1525.7,1120.45C1519.4,1113.56 1513.8,1106.25 1511.78,1100.49C1510.42,1096.6 1509.48,1094.5 1511.9,1091.5C1517.36,1084.74 1517.04,1085.33 1523.07,1079.94C1537.34,1067.2 1544.96,1063.34 1548.75,1062.27C1551.72,1061.43 1552.71,1062.18 1552.71,1062.18Z" style="fill:rgb(62,79,102);"/>
                    </g>
                </g>
                <g id="Layer30" transform="matrix(1,0,0,1,235.722,116.048)">
                    <g transform="matrix(1,0,0,1,2.98502,-0.514173)">
                        <g transform="matrix(1.21718,0.160715,-0.0913537,0.691866,-1215.38,-459.723)">
                            <path d="M1296.82,1747.87C1296.82,1747.87 1299.41,1747.32 1300.07,1749.14C1300.74,1750.97 1300.11,1752.05 1298.91,1752.2C1297.72,1752.35 1295.84,1751.96 1295.84,1751.96C1295.84,1751.96 1295.71,1748.65 1296.82,1747.87Z" style="fill:rgb(62,79,102);"/>
                        </g>
                        <g transform="matrix(1,0,0,1,-1093.04,-790.348)">
                            <rect x="1277.03" y="1753.93" width="1.272" height="5.377" style="fill:rgb(62,79,102);"/>
                        </g>
                        <g transform="matrix(1,0,0,1,-1089.4,-790.348)">
                            <rect x="1277.03" y="1753.93" width="1.272" height="5.377" style="fill:rgb(62,79,102);"/>
                        </g>
                        <g transform="matrix(1,0,0,1,-1081.89,-790.348)">
                            <rect x="1277.03" y="1753.93" width="1.272" height="5.377" style="fill:rgb(62,79,102);"/>
                        </g>
                        <g transform="matrix(1,0,0,1,-1078.97,-790.348)">
                            <rect x="1277.03" y="1753.93" width="1.272" height="5.377" style="fill:rgb(62,79,102);"/>
                        </g>
                        <g transform="matrix(1,0,0,1,-1093.04,-790.348)">
                            <path d="M1284.96,1743.49C1284.96,1743.49 1289.99,1741.46 1291.59,1743.95C1291.59,1743.95 1297.94,1744.18 1296.64,1748.04C1296.64,1748.04 1295.82,1750.82 1295.97,1752.09C1296.12,1753.36 1294.42,1754.8 1291.9,1754.86C1291.9,1754.86 1288.85,1756.88 1287.6,1755.32C1287.6,1755.32 1282.54,1757.19 1280.3,1754.45C1280.3,1754.45 1275.68,1755.34 1276.43,1752.3C1276.43,1752.3 1274.07,1749.47 1275.92,1747.46C1275.92,1747.46 1275.35,1743.36 1277.78,1743C1277.78,1743 1282.38,1741.23 1284.96,1743.49Z" style="fill:rgb(239,239,239);"/>
                        </g>
                    </g>
                    <g transform="matrix(1,0,0,1,-1090.06,-790.862)">
                        <path d="M1383.39,1722.05C1383.39,1722.05 1380.38,1721.49 1377.64,1723.64C1374.91,1725.79 1373.08,1726.8 1372.68,1728.26C1372.3,1729.71 1372.48,1730.59 1373.83,1730.91C1375.18,1731.24 1380.24,1730.4 1380.82,1731.12C1381.4,1731.84 1380.55,1732.23 1380.62,1733.75C1380.69,1735.27 1379.52,1737.55 1379.91,1738.97C1380.31,1740.39 1382.01,1740.98 1383.99,1740.63C1385.97,1740.29 1393.61,1739.94 1395.51,1740.03C1397.42,1740.12 1401.41,1740.19 1402.76,1739.64C1404.12,1739.09 1404.94,1738.16 1404.97,1736.96C1404.99,1735.76 1405.15,1731.26 1404.99,1730.27C1404.83,1729.28 1404.39,1726.64 1402.79,1726.73C1401.18,1726.83 1392.69,1726.58 1391.7,1726.62C1390.71,1726.66 1386.19,1727.7 1385.51,1726.53C1384.83,1725.36 1385.34,1721.74 1383.39,1722.05Z" style="fill:rgb(239,239,239);"/>
                    </g>
                    <g transform="matrix(1,0,0,1,-1090.06,-790.862)">
                        <path d="M1415.82,1719.66C1415.58,1719.94 1405.06,1715.61 1405.06,1715.61" style="fill:none;"/>
                    </g>
                    <g transform="matrix(0.991583,0.129472,-0.129472,0.991583,-856.256,-956.259)">
                        <rect x="1383.61" y="1740.73" width="1.541" height="8.412" style="fill:rgb(62,79,102);"/>
                    </g>
                    <g transform="matrix(0.999905,-0.0138019,0.0152607,1.10559,-1115.72,-956.454)">
                        <rect x="1383.61" y="1740.73" width="1.541" height="8.412" style="fill:rgb(239,239,239);"/>
                    </g>
                    <g transform="matrix(0.988759,0.149518,-0.165321,1.09326,-771.236,-1161.1)">
                        <rect x="1383.61" y="1740.73" width="1.541" height="8.412" style="fill:rgb(239,239,239);"/>
                    </g>
                    <g transform="matrix(1.08912,-0.0139472,0.0163397,1.27594,-1222.75,-1254.7)">
                        <rect x="1383.61" y="1740.73" width="1.541" height="8.412" style="fill:rgb(239,239,239);"/>
                    </g>
                    <g transform="matrix(1,0,0,1,-1090.06,-790.862)">
                        <path d="M1380.36,1735.6C1380.36,1735.6 1381.13,1736.15 1381.92,1734.98C1382.7,1733.8 1382.57,1733.04 1384.19,1734.08C1385.81,1735.11 1386.04,1735.93 1386.88,1735.44C1387.42,1735.12 1387.53,1734.96 1387.86,1734.96C1388.29,1734.96 1388.5,1734.95 1389.19,1735.21C1391.12,1735.95 1390.28,1737.06 1391.26,1737.45C1392.24,1737.83 1393.54,1737.18 1394.17,1738.46C1394.8,1739.74 1393.34,1740.41 1390.34,1740.73C1387.34,1741.05 1383.4,1740.74 1382.42,1740.73C1381.45,1740.72 1378.63,1740.41 1380.36,1735.6Z" style="fill:rgb(62,79,102);"/>
                    </g>
                    <g transform="matrix(1,0,0,1,-1090.06,-790.862)">
                        <path d="M1394.31,1726.64C1394.31,1726.64 1392.68,1727.73 1393.47,1728.66C1394.26,1729.59 1394.1,1730.46 1394.91,1730.77C1395.72,1731.08 1395.69,1732.01 1396.97,1731.36C1398.26,1730.71 1398.59,1730 1399.51,1730.71C1400.42,1731.42 1399.89,1732.35 1400.76,1732.83C1401.64,1733.31 1401.96,1734.24 1403.12,1733.59C1404.28,1732.94 1404.89,1732.5 1405.06,1732.07C1405.28,1731.52 1404.69,1726.6 1403.35,1726.64C1402.01,1726.68 1395.48,1726.48 1394.31,1726.64Z" style="fill:rgb(62,79,102);"/>
                    </g>
                    <g transform="matrix(1.8577,0,0,1.5149,-723.549,-529.704)">
                        <path d="M546.766,964.803C546.766,964.803 547.556,964.017 547.364,962.465C547.364,962.465 548.303,963.257 547.514,964.937L546.766,964.803Z" style="fill:rgb(62,79,102);"/>
                    </g>
                    <g transform="matrix(-0.948108,0,0,0.943586,530.042,17.2188)">
                        <g transform="matrix(1.21718,0.160715,-0.0913537,0.691866,-1215.38,-459.723)">
                            <path d="M1296.82,1747.87C1296.82,1747.87 1299.41,1747.32 1300.07,1749.14C1300.74,1750.97 1300.11,1752.05 1298.91,1752.2C1297.72,1752.35 1295.84,1751.96 1295.84,1751.96C1295.84,1751.96 1295.71,1748.65 1296.82,1747.87Z" style="fill:rgb(62,79,102);"/>
                        </g>
                        <g transform="matrix(1,0,0,1,-1093.04,-790.348)">
                            <rect x="1277.03" y="1753.93" width="1.272" height="5.377" style="fill:rgb(62,79,102);"/>
                        </g>
                        <g transform="matrix(1,0,0,1,-1089.4,-790.348)">
                            <rect x="1277.03" y="1753.93" width="1.272" height="5.377" style="fill:rgb(62,79,102);"/>
                        </g>
                        <g transform="matrix(1,0,0,1,-1081.89,-790.348)">
                            <rect x="1277.03" y="1753.93" width="1.272" height="5.377" style="fill:rgb(62,79,102);"/>
                        </g>
                        <g transform="matrix(1,0,0,1,-1078.97,-790.348)">
                            <rect x="1277.03" y="1753.93" width="1.272" height="5.377" style="fill:rgb(62,79,102);"/>
                        </g>
                        <g transform="matrix(1,0,0,1,-1093.04,-790.348)">
                            <path d="M1284.96,1743.49C1284.96,1743.49 1289.99,1741.46 1291.59,1743.95C1291.59,1743.95 1297.94,1744.18 1296.64,1748.04C1296.64,1748.04 1295.82,1750.82 1295.97,1752.09C1296.12,1753.36 1294.42,1754.8 1291.9,1754.86C1291.9,1754.86 1288.85,1756.88 1287.6,1755.32C1287.6,1755.32 1282.54,1757.19 1280.3,1754.45C1280.3,1754.45 1275.68,1755.34 1276.43,1752.3C1276.43,1752.3 1274.07,1749.47 1275.92,1747.46C1275.92,1747.46 1275.35,1743.36 1277.78,1743C1277.78,1743 1282.38,1741.23 1284.96,1743.49Z" style="fill:rgb(239,239,239);"/>
                        </g>
                    </g>
                </g>
                <g transform="matrix(1,0,0,1,-1038.55,-4619.55)">
                    <rect x="991.237" y="4670.92" width="781.48" height="1943.47" style="fill:none;"/>
                </g>
            </g>
        </g>
    </g>
</svg>
