<?xml version="1.0" encoding="UTF-8" standalone="no"?>
<!DOCTYPE svg PUBLIC "-//W3C//DTD SVG 1.1//EN" "http://www.w3.org/Graphics/SVG/1.1/DTD/svg11.dtd">
<svg width="100%" height="100%" viewBox="0 0 783 1944" version="1.1" xmlns="http://www.w3.org/2000/svg" xmlns:xlink="http://www.w3.org/1999/xlink" xml:space="preserve" xmlns:serif="http://www.serif.com/" style="fill-rule:evenodd;clip-rule:evenodd;stroke-linejoin:round;stroke-miterlimit:2;">
    <g transform="matrix(1,0,0,1,-991.059,-4670.92)">
        <g transform="matrix(1,0,0,1,-13.0848,1194.21)">
            <g id="bergje1" transform="matrix(1.0017,0,0,1,1015.36,3788.29)">
                <g id="Layer2">
                    <g transform="matrix(1,0,0,1,0.715273,-144.377)">
                        <path d="M769.337,1078.62C769.337,1078.62 712.653,1089.95 657.5,1093.42C604.542,1096.76 541.125,1111.42 472.274,1123.52C402.178,1135.83 244.061,1204.62 188.298,1241.29C132.535,1277.96 45.818,1328.28 -11.914,1389.69C-11.914,1389.69 769.001,1388.69 769.337,1389.69C769.672,1390.69 769.337,1078.62 769.337,1078.62Z" style="fill:rgb(78,205,93);"/>
                    </g>
                    <g transform="matrix(1,0,0,1,0.715273,-144.377)">
                        <path d="M698.931,1089.52C698.931,1089.52 666.13,1158.52 644.497,1211.82C622.864,1265.13 609.594,1311.98 603.672,1332.12C597.75,1352.26 592.508,1385.08 591.029,1390.96C589.55,1396.85 734.074,1390.79 733.823,1390.74C733.571,1390.7 748.3,1263.61 760.155,1207.48C767.716,1171.68 769.132,1129.16 769.336,1103.03C769.452,1088.19 769.336,1078.62 769.336,1078.62C769.336,1078.62 725.803,1086.89 698.931,1089.52Z" style="fill:rgb(64,182,78);"/>
                    </g>
                    <g transform="matrix(1,0,0,1,0.715273,-144.377)">
                        <path d="M510.747,1115.73C510.747,1115.73 487.087,1135.5 463.887,1170.89C440.686,1206.28 423.853,1238.73 403.691,1299.7C383.529,1360.68 381.359,1384.88 380.261,1389.85C379.163,1394.82 495.503,1390.52 495.503,1390.52C495.503,1390.52 505.016,1290.36 533.382,1232.44" style="fill:none;"/>
                    </g>
                    <g transform="matrix(1,0,0,1,0.715273,-144.377)">
                        <path d="M509.174,1116.93C509.174,1116.93 470.642,1161.11 443.661,1201.4C431.041,1220.25 410.59,1258.8 399.04,1298.31C385.638,1344.17 382.039,1390.18 382.11,1390.2C382.241,1390.22 500.088,1390.1 500.088,1390.1C500.088,1390.1 506.963,1284.89 539.771,1219.45C572.579,1154.01 608.577,1098.85 608.577,1098.85C608.577,1098.85 535.141,1110.46 509.174,1116.93Z" style="fill:rgb(64,182,78);"/>
                    </g>
                    <g transform="matrix(1,0,0,1,0.715273,-144.377)">
                        <path d="M392.023,1146.91C392.023,1146.91 267.698,1263.02 205.271,1388.68L1.337,1390.33C1.337,1390.33 121.623,1240.92 392.023,1146.91Z" style="fill:rgb(64,182,78);"/>
                    </g>
                </g>
                <g transform="matrix(0.998304,0,0,1,-1000.58,-4982.5)">
                    <rect x="991.059" y="4670.92" width="781.657" height="1943.47" style="fill:none;"/>
                </g>
            </g>
        </g>
    </g>
</svg>
