<?xml version="1.0" encoding="UTF-8" standalone="no"?>
<!DOCTYPE svg PUBLIC "-//W3C//DTD SVG 1.1//EN" "http://www.w3.org/Graphics/SVG/1.1/DTD/svg11.dtd">
<svg width="100%" height="100%" viewBox="0 0 783 1944" version="1.1" xmlns="http://www.w3.org/2000/svg" xmlns:xlink="http://www.w3.org/1999/xlink" xml:space="preserve" xmlns:serif="http://www.serif.com/" style="fill-rule:evenodd;clip-rule:evenodd;stroke-linejoin:round;stroke-miterlimit:2;">
    <g transform="matrix(1,0,0,1,-990.099,-4670.92)">
        <g transform="matrix(1,0,0,1,-13.0848,1194.21)">
            <g id="bergje4" transform="matrix(1.93766,0,0,1.85526,494.074,2854.49)">
                <g transform="matrix(0.483256,0,0,0.573745,245.016,212.185)">
                    <path d="M36.686,1022.15C36.686,1022.15 164.566,1013.92 244.979,1022.15C321.307,1029.96 416.017,1043.4 465.372,1055.94C514.727,1068.49 615.351,1116.09 640.142,1136.54C652.702,1146.89 871.887,1211.85 872.295,1273.94C872.692,1334.41 872.295,1528.41 872.295,1528.41L36.686,1528.41L36.686,1022.15Z" style="fill:rgb(166,218,172);"/>
                </g>
                <g transform="matrix(1,0,0,1,1.60895,-0.277143)">
                    <g transform="matrix(0.539008,0,0,0.539008,243.848,352.803)">
                        <path d="M381.021,900.008C381.021,900.008 403.29,895.644 421.967,908.356C440.643,921.068 433.226,929.065 419.783,932.299C406.341,935.532 379.258,927.109 366.143,937.727C353.028,948.344 341.355,966.993 324.875,969.24C308.394,971.488 290.881,967.296 273.394,963.813C255.907,960.329 240.513,948.552 218.248,957.333C195.982,966.115 179.642,967.277 166.941,961.53C154.24,955.783 134.34,956.259 121.147,948.582C107.953,940.905 101.077,907.498 112.563,900.008C124.049,892.518 211.969,890.258 227.946,890.991C243.922,891.725 271.559,904.159 281.917,900.008C292.276,895.857 313.252,888.814 324.875,888.409C336.497,888.005 381.021,900.008 381.021,900.008Z" style="fill:rgb(153,205,159);"/>
                    </g>
                    <g transform="matrix(0.539008,0,0,0.539008,243.848,352.803)">
                        <path d="M137.629,897.523C137.629,897.523 138.297,894.392 137.75,888.399C137.185,882.218 133.06,876.596 125.072,871.441C117.085,866.286 108.399,870.413 98.943,870.233C89.488,870.052 86.659,869.456 77.372,872.803C68.086,876.15 61.589,874.438 57.071,881.729C52.552,889.021 56.741,874.949 55.076,888.399C53.412,901.849 61.592,895.542 65.922,903.616C71.036,913.152 80.933,911.24 91.124,914.962C101.315,918.684 113.382,917.666 121.94,918.962C129.768,920.147 137.629,897.523 137.629,897.523Z" style="fill:rgb(153,205,159);"/>
                    </g>
                </g>
                <g id="Layer17" transform="matrix(-0.31794,0,0,0.38918,368.717,471.197)">
                    <g transform="matrix(1.01759,0,0,0.986894,-10.0039,10.5451)">
                        <path d="M226.263,881.465L253.254,858.958L280.984,880.932C280.984,880.932 280.877,916.858 280.877,917.185C280.877,917.512 225.97,917.736 225.97,917.736L226.263,881.465Z" style="fill:white;"/>
                    </g>
                    <g transform="matrix(-4.08444,0,0,4.09967,1782.39,-2584.75)">
                        <rect x="373.326" y="849.25" width="2.986" height="4.672" style="fill:rgb(62,79,102);"/>
                    </g>
                    <g transform="matrix(-0.494769,0,0,0.291325,444.443,570.106)">
                        <rect x="377.706" y="1057" width="24.65" height="24.816" style="fill:rgb(62,79,102);"/>
                    </g>
                    <g transform="matrix(1,0,0,1,-5.06054,-0.712122)">
                        <path d="M253.092,858.958L206.978,858.875L200.735,863.614C200.735,863.614 200.94,860.915 200.735,860.915C200.53,860.915 176.334,880.601 176.334,880.601L225.945,880.71L253.092,858.958Z" style="fill:rgb(62,79,102);"/>
                    </g>
                    <g transform="matrix(1.00007,0,0,1.03038,-5.07229,-28.5752)">
                        <path d="M226.109,917.229L176.17,917.229L176.17,881.552C176.17,881.552 225.999,881.778 225.773,881.552L226.109,917.229Z" style="fill:rgb(239,239,239);"/>
                    </g>
                    <g transform="matrix(1,0,0,0.787677,-5.06054,182.671)">
                        <path d="M200.58,863.583L200.58,851.21L212.258,851.21L212.258,859.212L206.725,859.312L200.58,863.583Z" style="fill:rgb(187,187,187);"/>
                    </g>
                    <g transform="matrix(1,0,0,0.787677,-5.06054,182.671)">
                        <path d="M206.771,859.266L206.771,851.236L200.68,851.236L200.68,863.697L206.771,859.266Z" style="fill:rgb(235,235,235);"/>
                    </g>
                    <g transform="matrix(-3.14525,0,0,2.56951,1154.65,-1211.46)">
                        <path d="M325.063,826.678L325.171,846.85L363.914,846.995L364.093,827.858C364.093,827.858 345.692,820.825 345.667,820.92C345.642,821.015 325.063,826.678 325.063,826.678Z" style="fill:rgb(235,235,235);"/>
                    </g>
                    <g transform="matrix(-3.14525,0,0,2.57354,1154.65,-1214.87)">
                        <path d="M364.096,827.641L384.696,828.512C384.696,828.512 384.696,846.938 384.696,846.906C384.696,846.875 363.899,846.906 363.899,846.906L364.096,827.641Z" style="fill:rgb(187,187,187);"/>
                    </g>
                    <g transform="matrix(-3.14525,0,0,2.56951,1154.65,-1211.46)">
                        <path d="M384.696,828.512L363.722,820.798L345.635,820.149L321.494,826.859L325.109,826.859L345.948,821.346L363.629,827.892L384.696,828.512Z" style="fill:rgb(62,79,102);"/>
                    </g>
                    <g transform="matrix(-3.27213,0,0,2.62478,1199.28,-1258.65)">
                        <path d="M351.776,838.294L351.776,853.792L363.648,853.792L363.648,838.5L351.776,838.294Z" style="fill:white;"/>
                    </g>
                    <g transform="matrix(-3.14525,0,0,2.56951,1154.65,-1211.46)">
                        <path d="M363.648,853.792L384.08,853.792L384.08,839.256L375.052,830.228L363.976,838.226L363.648,853.792Z" style="fill:rgb(223,223,223);"/>
                    </g>
                    <g transform="matrix(-3.10989,0,0,2.56951,1142.31,-1211.46)">
                        <path d="M364.369,838.205L348.99,837.951L360.205,829.808C360.205,829.808 375.245,829.789 375.093,829.876C374.941,829.963 387.523,839.633 387.523,839.633L384.538,839.6L374.6,831.207L364.369,838.205Z" style="fill:rgb(62,79,102);"/>
                    </g>
                    <g transform="matrix(-4.80615,0,0,4.19456,1779.67,-2599.92)">
                        <rect x="373.326" y="849.25" width="2.986" height="4.672" style="fill:rgb(62,79,102);"/>
                    </g>
                    <g transform="matrix(-3.14525,0,0,2.56951,1158.67,-1222.78)">
                        <rect x="373.729" y="841.295" width="3.157" height="3.257" style="fill:rgb(62,79,102);"/>
                    </g>
                    <g transform="matrix(-3.14525,0,0,2.56951,1210.39,-1211)">
                        <rect x="373.729" y="841.295" width="3.157" height="3.257" style="fill:rgb(62,79,102);"/>
                    </g>
                    <g transform="matrix(-7.60488,0,0,4.19964,2933.09,-2615.49)">
                        <rect x="373.729" y="841.295" width="3.157" height="3.257" style="fill:rgb(62,79,102);"/>
                    </g>
                    <g transform="matrix(-1.69532,0,0,1.35168,579.742,-200.917)">
                        <path d="M495.291,854.186L495.291,823.428L449.604,823.428L449.604,854.525C449.604,855.363 495.291,854.186 495.291,854.186Z" style="fill:white;"/>
                    </g>
                    <g transform="matrix(-1.69532,0,0,1.38498,579.742,-228.338)">
                        <path d="M402.557,824.856L449.604,823.428L449.604,853.844C449.604,853.844 402.372,854.044 402.101,853.982C401.83,853.921 402.557,824.856 402.557,824.856Z" style="fill:rgb(229,229,229);"/>
                    </g>
                    <g transform="matrix(-1.69532,0,0,1.38498,579.742,-228.338)">
                        <path d="M397.57,825.872L429.062,810.597L468.722,806.999L446.74,824.33C446.74,824.33 395.893,826.027 397.57,825.872Z" style="fill:rgb(38,54,75);"/>
                    </g>
                    <g transform="matrix(-1.69532,0,0,1.38498,579.742,-228.338)">
                        <path d="M468.722,806.999L499.11,823.632L446.64,824.372L468.722,806.999Z" style="fill:rgb(62,79,102);"/>
                    </g>
                    <g transform="matrix(-1.69532,0,0,1.38498,579.742,-228.338)">
                        <rect x="470.404" y="839.315" width="9.63" height="14.766" style="fill:rgb(62,79,102);"/>
                    </g>
                    <g transform="matrix(-4.33427,0,0,1.38498,1885.43,-227.924)">
                        <rect x="485.242" y="830.15" width="3.767" height="4.54" style="fill:rgb(62,79,102);"/>
                    </g>
                    <g transform="matrix(-1.69532,0,0,1.38498,579.742,-228.338)">
                        <rect x="410.778" y="830.528" width="3.843" height="5.164" style="fill:rgb(62,79,102);"/>
                    </g>
                    <g transform="matrix(-1.69532,0,0,1.38498,579.742,-228.338)">
                        <rect x="423.044" y="830.562" width="3.743" height="4.814" style="fill:rgb(62,79,102);"/>
                    </g>
                    <g transform="matrix(-1.69532,0,0,1.38498,579.742,-228.338)">
                        <rect x="434.8" y="829.924" width="3.363" height="4.898" style="fill:rgb(62,79,102);"/>
                    </g>
                    <g transform="matrix(-0.539142,0,0,1.38498,177.046,-305.207)">
                        <rect x="167.953" y="900.211" width="27.531" height="16.695" style="fill:rgb(62,79,102);"/>
                    </g>
                </g>
                <g id="Layer38" transform="matrix(0.539008,0,0,0.539008,-349.11,352.803)">
                    <g transform="matrix(0.25731,0,0,0.25731,1331.64,796.519)">
                        <g transform="matrix(0.817539,0,0,0.817539,-688.574,98.0188)">
                            <path d="M460.469,328.183C460.469,328.183 471.296,331.389 475.409,334.97C479.521,338.551 483.871,341.3 487.489,349.697C491.107,358.094 490.398,365.598 489.915,369.035C489.432,372.472 486.323,378.571 486.474,378.639C486.624,378.707 493.394,387.571 495.047,394.554C496.699,401.536 496.649,408.589 496.304,412.096C495.958,415.603 493.49,420.932 493.49,420.932C493.49,420.932 503.486,433.614 502.061,447.425C500.637,461.237 500.26,467.62 489.915,479.581C479.571,491.541 471.971,493.488 462.519,496.01C453.067,498.531 430.143,483.872 430.143,483.872L417.895,452.358L422.711,436.539L424.707,397.799L435.475,381.921L433.324,364.51L439.266,343.776L447.017,334.97L460.469,328.183Z" style="fill:rgb(109,168,116);"/>
                        </g>
                        <g transform="matrix(0.817539,0,0,0.817539,-688.574,98.0188)">
                            <path d="M460.469,329.002C460.469,329.002 445.096,334.379 439.37,355.57C433.644,376.761 442.852,382.961 442.852,382.961C442.852,382.961 426.578,394.784 426.51,413.178C426.441,431.572 430.485,432.817 429.781,433.424C429.076,434.032 418.346,450.453 426.51,469.89C434.444,488.78 446.758,492.517 446.758,492.517L446.758,496.301C446.758,496.301 426.071,492.521 417.233,479.826C408.395,467.131 406.159,454.788 406.189,453.835C406.218,452.882 405.666,439.354 409.95,430.484C414.234,421.613 414.752,421.049 414.752,421.049C414.752,421.049 411.542,410.342 412.778,401.772C414.013,393.202 415.744,385.062 424.25,377.195C424.25,377.195 417.219,368.634 421.251,355.57C425.284,342.506 428.803,339.294 435.116,334.46C441.429,329.626 457.195,326.654 460.469,329.002Z" style="fill:rgb(95,144,96);"/>
                        </g>
                        <g transform="matrix(0.817539,0,0,0.817539,-688.574,98.0188)">
                            <path d="M448.657,474.58L441.448,464.776L442.853,463.612L450.001,468.593L448.657,474.58Z" style="fill:rgb(62,79,102);"/>
                        </g>
                        <g transform="matrix(0.817539,0,0,0.817539,-688.574,98.0188)">
                            <path d="M457.806,452.452L467.725,445.523L468.886,446.61L457.806,462.04L454.475,453.426L457.806,452.452Z" style="fill:rgb(62,79,102);"/>
                        </g>
                        <g transform="matrix(0.817539,0,0,0.817539,-688.574,98.0188)">
                            <path d="M452.485,430.09L444.728,513.191L464.221,513.191L455.784,430.09L452.485,430.09Z" style="fill:rgb(62,79,102);"/>
                        </g>
                    </g>
                    <g transform="matrix(0.25731,0,0,0.25731,1464.99,784.828)">
                        <g transform="matrix(0.817539,0,0,0.817539,-688.574,98.0188)">
                            <path d="M460.469,328.183C460.469,328.183 471.296,331.389 475.409,334.97C479.521,338.551 483.871,341.3 487.489,349.697C491.107,358.094 490.398,365.598 489.915,369.035C489.432,372.472 486.323,378.571 486.474,378.639C486.624,378.707 493.394,387.571 495.047,394.554C496.699,401.536 496.649,408.589 496.304,412.096C495.958,415.603 493.49,420.932 493.49,420.932C493.49,420.932 503.486,433.614 502.061,447.425C500.637,461.237 500.26,467.62 489.915,479.581C479.571,491.541 471.971,493.488 462.519,496.01C453.067,498.531 430.143,483.872 430.143,483.872L417.895,452.358L422.711,436.539L424.707,397.799L435.475,381.921L433.324,364.51L439.266,343.776L447.017,334.97L460.469,328.183Z" style="fill:rgb(109,168,116);"/>
                        </g>
                        <g transform="matrix(0.817539,0,0,0.817539,-688.574,98.0188)">
                            <path d="M460.469,329.002C460.469,329.002 445.096,334.379 439.37,355.57C433.644,376.761 442.852,382.961 442.852,382.961C442.852,382.961 426.578,394.784 426.51,413.178C426.441,431.572 430.485,432.817 429.781,433.424C429.076,434.032 418.346,450.453 426.51,469.89C434.444,488.78 446.758,492.517 446.758,492.517L446.758,496.301C446.758,496.301 426.071,492.521 417.233,479.826C408.395,467.131 406.159,454.788 406.189,453.835C406.218,452.882 405.666,439.354 409.95,430.484C414.234,421.613 414.752,421.049 414.752,421.049C414.752,421.049 411.542,410.342 412.778,401.772C414.013,393.202 415.744,385.062 424.25,377.195C424.25,377.195 417.219,368.634 421.251,355.57C425.284,342.506 428.803,339.294 435.116,334.46C441.429,329.626 457.195,326.654 460.469,329.002Z" style="fill:rgb(95,144,96);"/>
                        </g>
                        <g transform="matrix(0.817539,0,0,0.817539,-688.574,98.0188)">
                            <path d="M448.717,474.843L441.448,464.776L442.853,463.612L450.001,468.593L448.717,474.843Z" style="fill:rgb(62,79,102);"/>
                        </g>
                        <g transform="matrix(0.817539,0,0,0.817539,-688.574,98.0188)">
                            <path d="M457.806,452.452L467.725,445.523L468.886,446.61L457.806,462.04L454.475,453.426L457.806,452.452Z" style="fill:rgb(62,79,102);"/>
                        </g>
                        <g transform="matrix(0.817539,0,0,0.817539,-688.574,98.0188)">
                            <path d="M452.485,430.09L444.728,513.191L464.221,513.191L455.784,430.09L452.485,430.09Z" style="fill:rgb(62,79,102);"/>
                        </g>
                    </g>
                    <g transform="matrix(0.190641,0,0,0.190641,1284.2,793.248)">
                        <g transform="matrix(0.817539,0,0,0.817539,-688.574,98.0188)">
                            <path d="M460.469,328.183C460.469,328.183 471.296,331.389 475.409,334.97C479.521,338.551 483.871,341.3 487.489,349.697C491.107,358.094 490.398,365.598 489.915,369.035C489.432,372.472 486.323,378.571 486.474,378.639C486.624,378.707 493.394,387.571 495.047,394.554C496.699,401.536 496.649,408.589 496.304,412.096C495.958,415.603 493.49,420.932 493.49,420.932C493.49,420.932 503.486,433.614 502.061,447.425C500.637,461.237 500.26,467.62 489.915,479.581C479.571,491.541 471.971,493.488 462.519,496.01C453.067,498.531 430.143,483.872 430.143,483.872L417.895,452.358L422.711,436.539L424.707,397.799L435.475,381.921L433.324,364.51L439.266,343.776L447.017,334.97L460.469,328.183Z" style="fill:rgb(109,168,116);"/>
                        </g>
                        <g transform="matrix(0.817539,0,0,0.817539,-688.574,98.0188)">
                            <path d="M460.469,329.002C460.469,329.002 445.096,334.379 439.37,355.57C433.644,376.761 442.852,382.961 442.852,382.961C442.852,382.961 426.578,394.784 426.51,413.178C426.441,431.572 430.485,432.817 429.781,433.424C429.076,434.032 418.346,450.453 426.51,469.89C434.444,488.78 446.758,492.517 446.758,492.517L446.758,496.301C446.758,496.301 426.071,492.521 417.233,479.826C408.395,467.131 406.159,454.788 406.189,453.835C406.218,452.882 405.666,439.354 409.95,430.484C414.234,421.613 414.752,421.049 414.752,421.049C414.752,421.049 411.542,410.342 412.778,401.772C414.013,393.202 415.744,385.062 424.25,377.195C424.25,377.195 417.219,368.634 421.251,355.57C425.284,342.506 428.803,339.294 435.116,334.46C441.429,329.626 457.195,326.654 460.469,329.002Z" style="fill:rgb(95,144,96);"/>
                        </g>
                        <g transform="matrix(0.817539,0,0,0.817539,-688.574,98.0188)">
                            <path d="M449.06,474.903L441.448,464.776L442.853,463.612L450.001,468.593L449.06,474.903Z" style="fill:rgb(62,79,102);"/>
                        </g>
                        <g transform="matrix(0.817539,0,0,0.817539,-688.574,98.0188)">
                            <path d="M457.806,452.452L467.725,445.523L468.886,446.61L457.806,462.04L454.475,453.426L457.806,452.452Z" style="fill:rgb(62,79,102);"/>
                        </g>
                        <g transform="matrix(0.817539,0,0,0.817539,-688.574,98.0188)">
                            <path d="M452.485,430.09L444.728,513.191L464.221,513.191L455.784,430.09L452.485,430.09Z" style="fill:rgb(62,79,102);"/>
                        </g>
                    </g>
                </g>
                <g transform="matrix(0.516086,0,0,0.539008,-248.232,-2182.28)">
                    <rect x="991.059" y="4670.92" width="781.657" height="1943.47" style="fill:none;"/>
                </g>
            </g>
        </g>
    </g>
</svg>
