<?xml version="1.0" encoding="UTF-8" standalone="no"?>
<!DOCTYPE svg PUBLIC "-//W3C//DTD SVG 1.1//EN" "http://www.w3.org/Graphics/SVG/1.1/DTD/svg11.dtd">
<svg width="100%" height="100%" viewBox="0 0 783 1944" version="1.1" xmlns="http://www.w3.org/2000/svg" xmlns:xlink="http://www.w3.org/1999/xlink" xml:space="preserve" xmlns:serif="http://www.serif.com/" style="fill-rule:evenodd;clip-rule:evenodd;stroke-linejoin:round;stroke-miterlimit:2;">
    <g transform="matrix(1,0,0,1,-991.059,-4670.92)">
        <g transform="matrix(1,0,0,1,-13.0848,1194.21)">
            <g id="bird" transform="matrix(1.78571,0,0,1.78571,-615.496,3054.75)">
                <g transform="matrix(1,0,0,1,1.67162,-0.287938)">
                    <path d="M994.516,916.47C994.516,916.47 990.398,915.953 988.09,919.26C985.781,922.566 983.37,925.964 983.072,929.294C982.773,932.624 983.832,937.18 983.832,937.18L982.996,941.004C982.996,941.004 982.978,940.046 977.752,941.882C972.526,943.717 968.291,948.903 963.687,951.998C959.083,955.092 953.162,959.974 949.965,962.75C946.769,965.527 942.178,968.84 940.196,970.756C938.214,972.671 938.11,973.103 935.671,974.579C933.232,976.055 931.903,977.681 929.512,979.876C927.121,982.072 920.353,988.679 920.353,988.679C920.353,988.679 923.303,988.232 924.648,987.643C924.648,987.643 923.836,991.857 922.517,992.981C921.199,994.105 925.369,992.28 925.446,992.064C925.523,991.848 924.648,994.175 924.648,994.175C924.648,994.175 927.399,990.995 929.892,990.67C932.386,990.344 941.402,987.732 942.816,987.205C944.23,986.678 949.333,985.532 951.294,984.695C953.255,983.858 955.298,982.846 956.58,983.023C957.861,983.2 958.621,984.968 959.275,984.695C959.929,984.422 960.448,984.302 961.975,984.456C963.502,984.61 965.739,985.349 965.701,985.214C965.664,985.08 968.438,984.894 968.438,984.894C968.438,984.894 969.966,982.086 970.682,980.951C970.682,980.951 971.019,981.606 971.365,982.112C971.711,982.617 971.767,982.23 972.267,981.466C972.767,980.701 975.475,978.195 978.148,977.043C980.821,975.892 986.948,972.878 989.689,968.17C992.429,963.463 997.929,954.19 998.029,948.227C998.129,942.265 996.796,935.237 996.796,935.237C996.796,935.237 996.071,928.991 999.533,928.862C1003,928.733 1003.45,928.862 1003.45,928.862L1006.01,924.805C1006.01,924.805 1003.41,916.869 994.516,916.47Z" style="fill:white;"/>
                </g>
                <g transform="matrix(1.37881,0,0,1.27926,-376.279,-257.202)">
                    <path d="M997.01,920.334C997.01,920.334 994.847,919.302 994.531,920.835C994.216,922.369 994.35,923.273 995.575,923.252C996.799,923.23 998.836,920.344 997.01,920.334Z" style="fill:rgb(52,55,73);"/>
                </g>
                <g id="Layer13">
                    <g transform="matrix(1,0,0,1,1.67162,-0.287938)">
                        <path d="M936.675,980.684C936.675,980.684 927.054,984.656 925.422,986.521C923.79,988.387 923.135,992.479 921.956,993.506C920.778,994.532 926.037,992.082 928.51,990.65C930.983,989.218 934.704,985.069 938.046,984.069C941.107,983.154 940.356,983.844 940.665,982.078C940.974,980.313 936.675,980.684 936.675,980.684Z" style="fill:rgb(239,239,239);"/>
                    </g>
                    <g transform="matrix(1,0,0,1,1.67162,-0.287938)">
                        <path d="M982.607,940.645C982.607,940.645 984.747,940.137 985.226,944.37C985.704,948.603 986.977,950.974 984.799,952.432C982.62,953.889 981.718,956.034 981.2,957.472C980.682,958.911 979.309,960.569 979.026,962.735C978.744,964.902 979.732,968.842 979.062,970.573C978.391,972.303 975.388,973.679 975.216,973.784C975.043,973.889 974.782,971.747 975.162,971.262C975.162,971.262 971.736,974.123 970.455,974.207C969.175,974.292 969.035,973.646 969.035,973.646C969.035,973.646 965.925,976.643 960.285,975.995C960.285,975.995 952.964,979.989 949.978,980.263C949.978,980.263 949.124,979.064 949.514,977.484C949.514,977.484 946.43,982.23 945.85,981.097C945.27,979.963 945.252,980.193 945.252,980.193C945.252,980.193 945.219,982.725 941.39,983.476C937.561,984.227 937.576,983.841 937.576,983.841C937.576,983.841 936.939,983.266 936.763,982.31C936.763,982.31 922.446,989.108 919.713,989.041C919.713,989.041 926.709,981.493 930.261,978.763C933.976,975.909 934.682,974.561 937.082,973.233C939.482,971.905 938.652,972 940.56,970.364C942.469,968.728 941.873,969.293 944.104,967.362C946.335,965.431 947.065,964.959 949.365,963.314C951.665,961.668 951.721,960.424 954.118,958.792C956.515,957.16 957.692,956.659 959.674,954.566C961.655,952.472 966.386,949.295 968.292,948.163C970.198,947.031 972.412,944.476 974.309,943.285C976.206,942.095 978.596,940.308 982.607,940.645Z" style="fill:rgb(239,239,239);"/>
                    </g>
                </g>
                <g transform="matrix(1.68093,0,0,1.72187,-676.612,-665.31)">
                    <ellipse cx="995.715" cy="921.535" rx="0.393" ry="0.29" style="fill:white;"/>
                </g>
                <g transform="matrix(1,0,0,1,1.67162,-0.287938)">
                    <g id="Layer10">
                        <path d="M1005.7,924.213C1005.7,924.213 1003.17,924.51 998.908,929.022C998.908,929.022 1002.86,928.587 1007.74,929.966C1012.62,931.345 1035.43,938.868 1035.43,938.868C1035.43,938.868 1035.96,938.279 1034.65,937.589C1033.33,936.899 1005.7,924.213 1005.7,924.213Z" style="fill:rgb(51,51,51);"/>
                    </g>
                </g>
                <g transform="matrix(1,0,0,1,1.67162,-0.287938)">
                    <g id="Layer12">
                        <path d="M971.06,980.264L969.2,980.294C969.2,980.294 968.423,985.918 967.67,988.213C966.918,990.507 964.061,1010.51 964.253,1014.15C964.444,1017.79 964.774,1021.27 964.643,1023.2C964.513,1025.14 964.55,1026.19 963.947,1026.7C963.345,1027.2 961.973,1028.19 961.113,1028.59C960.253,1028.99 957.23,1029.11 958.948,1030.04C960.665,1030.98 967.172,1026.55 967.172,1026.55L967.423,1014.24C967.423,1014.24 966.781,1004.71 967.227,1003.76C967.674,1002.81 968.132,1001.77 968.006,1000.26C967.88,998.753 967.836,995.89 968.477,994.092C969.117,992.294 969.913,987.168 970.339,985.883C970.766,984.598 971.06,980.264 971.06,980.264Z" style="fill:rgb(65,65,65);"/>
                    </g>
                </g>
                <g transform="matrix(1,0,0,1,1.67162,-0.287938)">
                    <g id="Layer11">
                        <path d="M965.728,985.213C965.728,985.213 965.338,991.573 964.033,996.159C962.727,1000.75 962.635,1001.08 963.059,1003.15C963.483,1005.21 964.478,1012.2 964.976,1014.44C965.475,1016.69 965.692,1023.18 965.755,1024.19C965.819,1025.21 964.394,1027.86 963.114,1028.56C961.833,1029.26 959.901,1030.98 959.974,1030.77C960.047,1030.57 960.953,1031.43 962.115,1031.03C963.276,1030.63 965.92,1028.7 965.92,1028.7C965.92,1028.7 969.492,1030.64 971.366,1030.95C973.239,1031.25 985.537,1031.03 985.537,1031.03C985.537,1031.03 984.361,1029.79 982.064,1029.69C979.767,1029.6 972.508,1029.64 971.671,1029.14C970.835,1028.64 968.413,1026.04 968.422,1024.45C968.43,1022.87 967.145,1011.73 966.894,1010.02C966.643,1008.3 965.191,1000.55 965.505,998.517C965.819,996.485 966.445,992.775 966.922,991.297C967.399,989.82 967.7,986.247 967.893,985.388C968.086,984.53 966.736,984.523 965.728,985.213Z" style="fill:rgb(51,51,51);"/>
                    </g>
                </g>
                <g transform="matrix(0.560003,0,0,0.560003,352.007,-2379.43)">
                    <rect x="991.059" y="4670.92" width="782.727" height="1943.47" style="fill:none;"/>
                </g>
            </g>
        </g>
    </g>
</svg>
