<?xml version="1.0" encoding="UTF-8" standalone="no"?>
<!DOCTYPE svg PUBLIC "-//W3C//DTD SVG 1.1//EN" "http://www.w3.org/Graphics/SVG/1.1/DTD/svg11.dtd">
<svg width="100%" height="100%" viewBox="0 0 783 1975" version="1.1" xmlns="http://www.w3.org/2000/svg" xmlns:xlink="http://www.w3.org/1999/xlink" xml:space="preserve" xmlns:serif="http://www.serif.com/" style="fill-rule:evenodd;clip-rule:evenodd;stroke-linejoin:round;stroke-miterlimit:2;">
    <g transform="matrix(1,0,0,1,-991.059,-4639.42)">
        <g transform="matrix(1,0,0,1,-13.0848,1194.21)">
            <g id="city" transform="matrix(1.00963,0,0,1,998.834,3465.8)">
                <g id="cityback" transform="matrix(0.991814,0,0,1,-1085.83,-20.5975)">
                    <rect x="1100.09" y="0" width="781.25" height="1711.12" style="fill:none;"/>
                    <clipPath id="_clip1">
                        <rect x="1100.09" y="0" width="781.25" height="1711.12"/>
                    </clipPath>
                    <g clip-path="url(#_clip1)">
                        <g id="cityback1" serif:id="cityback" transform="matrix(0.33502,0,0,0.293401,914.562,531.777)">
                            <path d="M2885.97,640.907L2885.97,1454.09L2317.24,1456.22L2317.24,1452.21L554.023,1456.22L554.023,742.427L680.396,734.944L680.396,698.938L750.304,699.261L750.304,640.907L820.211,640.907L820.211,640.919L845.888,640.919L845.888,756.956L929.107,756.956L929.107,799.662L975.366,799.662L975.366,774.866L1018.28,774.866L1018.28,676.417L1133.13,676.417L1133.13,675.223L1133.08,675.223L1133.08,664.298L1133.13,664.298L1133.13,653.958L1133.08,653.958L1133.08,636.756L1133.13,636.756L1133.13,625.769L1133.08,625.769L1133.08,608.567L1133.13,608.567L1133.13,597.58L1133.08,597.58L1133.08,580.378L1133.13,580.378L1133.13,568.508L1133.08,568.508L1235.02,597.58L1244.64,597.642L1244.64,597.58L1244.56,597.58L1244.56,580.378L1244.64,580.378L1244.64,568.508L1244.56,568.508L1353.48,621.854L1419.86,621.854L1419.86,750.816L1473.47,750.816L1649.08,734.944L1708.34,734.944L1708.34,698.938L1778.25,699.261L1778.25,640.907L1848.16,640.907L1848.16,640.919L1873.82,640.919L1873.82,756.956L1957.05,756.956L1957.05,799.662L2003.31,799.662L2003.31,774.866L2046.21,774.866L2046.21,676.417L2161.07,676.417L2161.07,675.223L2161.02,675.223L2161.02,664.298L2161.07,664.298L2161.07,653.958L2161.02,653.958L2161.02,636.756L2161.07,636.756L2161.07,625.769L2161.02,625.769L2161.02,608.567L2161.07,608.567L2161.07,597.58L2161.02,597.58L2161.02,580.378L2161.07,580.378L2161.07,568.508L2161.02,568.508L2161.02,551.307L2161.07,551.307L2161.07,536.193L2161.02,536.193L2161.02,518.992L2161.07,518.992L2161.07,507.594L2262.96,507.594L2262.96,597.58L2272.58,597.642L2272.58,597.58L2272.5,597.58L2272.5,580.378L2272.58,580.378L2272.58,568.508L2272.5,568.508L2272.5,551.307L2272.58,551.307L2272.58,539.475L2272.5,539.475L2272.5,522.273L2272.58,522.273L2272.58,522.223L2363.39,522.223L2363.39,522.273L2378.99,522.273C2379.8,522.733 2380.6,523.18 2381.41,523.64L2381.41,621.854L2492.83,621.854L2492.83,750.828L2546.46,750.828L2546.46,512.317L2558.12,512.317L2558.12,495.638L2560.22,495.638L2560.22,512.317L2602.56,512.317L2602.56,495.638L2604.66,495.638L2604.66,512.317L2664.63,512.317L2664.63,495.638L2666.72,495.638L2666.72,512.317L2722.05,512.317L2722.05,734.957L2781.32,734.957L2781.32,698.938L2851.23,699.261L2851.23,640.907L2865.3,640.907L2865.3,629.36L2867.16,629.36L2867.16,640.907L2885.97,640.907Z" style="fill:rgb(246,246,246);fill-rule:nonzero;"/>
                        </g>
                    </g>
                </g>
                <g transform="matrix(1.00137,0,0,1,1.89235,-0.514173)">
                    <g transform="matrix(0.331824,0,0,0.331824,-41.2472,527.823)">
                        <path d="M2466.86,750.816L2466.39,1456.22L2317.24,1452.21L1244.25,1456.22L1244.25,1452.37L216.475,1456.22L134.438,1456.22L134.438,774.866L216.317,773.785L216.317,621.854L391.908,621.854L391.908,750.816L445.539,750.816L621.129,734.944L680.396,734.944L680.396,698.938L750.304,699.261L750.304,640.907L820.211,640.907L820.211,640.919L845.888,640.919L845.888,756.956L929.107,756.956L929.107,799.662L975.366,799.662L975.366,774.866L1018.28,774.866L1018.28,676.417L1133.13,676.417L1133.13,675.223L1133.08,675.223L1133.08,664.298L1133.13,664.298L1133.13,653.958L1133.08,653.958L1133.08,636.756L1133.13,636.756L1133.13,625.769L1133.08,625.769L1133.08,608.567L1133.13,608.567L1133.13,597.58L1133.08,597.58L1133.08,580.378L1133.13,580.378L1133.13,568.508L1133.08,568.508L1133.08,551.307L1133.13,551.307L1133.13,536.193L1133.08,536.193L1133.08,518.992L1133.13,518.992L1133.13,507.594L1235.02,507.594L1235.02,597.58L1244.64,597.642L1244.64,597.58L1244.56,597.58L1244.56,580.378L1244.64,580.378L1244.64,568.508L1244.56,568.508L1244.56,551.307L1244.64,551.307L1244.64,539.475L1244.56,539.475L1244.56,522.273L1244.64,522.273L1244.64,522.223L1335.44,522.223L1335.44,522.273L1351.05,522.273C1351.85,522.733 1352.66,523.18 1353.48,523.64L1353.48,621.854L1419.86,621.854L1419.86,750.816L1473.47,750.816L1473.47,512.317L1649.08,512.317L1649.08,734.944L1708.34,734.944L1708.34,698.938L1778.25,699.261L1778.25,640.907L1848.16,640.907L1848.16,640.919L1873.82,640.919L1873.82,756.956L1957.05,756.956L1957.05,799.662L2003.31,799.662L2003.31,774.866L2046.21,774.866L2046.21,676.417L2161.07,676.417L2161.07,675.223L2161.02,675.223L2161.02,664.298L2161.07,664.298L2161.07,653.958L2161.02,653.958L2161.02,636.756L2161.07,636.756L2161.07,625.769L2161.02,625.769L2161.02,608.567L2161.07,608.567L2161.07,597.58L2161.02,597.58L2161.02,580.378L2161.07,580.378L2161.07,568.508L2161.02,568.508L2161.02,551.307L2161.07,551.307L2161.07,536.193L2161.02,536.193L2161.02,518.992L2161.07,518.992L2161.07,507.594L2262.96,507.594L2262.96,597.58L2272.58,597.642L2272.58,597.58L2272.5,597.58L2272.5,580.378L2272.58,580.378L2272.58,568.508L2272.5,568.508L2272.5,551.307L2272.58,551.307L2272.58,539.475L2272.5,539.475L2272.5,522.273L2272.58,522.273L2272.58,522.223L2363.39,522.223L2363.39,522.273L2378.99,522.273C2379.8,522.733 2380.6,523.18 2381.41,523.64L2381.41,621.854L2466.86,621.854L2466.86,750.816Z" style="fill:rgb(237,237,237);fill-rule:nonzero;"/>
                    </g>
                    <g transform="matrix(0.990458,0,0,1,3.36243,-20.0834)">
                        <rect x="130.069" y="784.88" width="16.128" height="30.408" style="fill:rgb(237,237,237);"/>
                    </g>
                    <g id="Layer20" transform="matrix(0.990458,0,0,1,8.74456,0)">
                        <g transform="matrix(1,0,0,1,0.709867,1.26551)">
                            <rect x="434.17" y="583.768" width="67.126" height="252.034" style="fill:rgb(237,237,237);"/>
                        </g>
                        <rect x="542.098" y="688.047" width="34.99" height="134.094" style="fill:rgb(237,237,237);"/>
                        <rect x="479.282" y="638.708" width="3.641" height="1.932" style="fill:rgb(237,237,237);"/>
                        <rect x="475.096" y="662.028" width="3.342" height="1.378" style="fill:rgb(237,237,237);"/>
                        <g transform="matrix(0.980801,0,0,1,14.1456,0)">
                            <rect x="672.25" y="589.274" width="34.916" height="203.122" style="fill:rgb(237,237,237);"/>
                        </g>
                    </g>
                    <g transform="matrix(0.331824,0,0,0.331824,-41.2472,527.823)">
                        <rect x="1515.13" y="512.317" width="133.97" height="37.738" style="fill:rgb(248,248,248);fill-rule:nonzero;"/>
                    </g>
                    <g transform="matrix(0.331824,0,0,0.331824,-41.2472,527.823)">
                        <rect x="1515.13" y="570.402" width="133.97" height="37.737" style="fill:rgb(248,248,248);fill-rule:nonzero;"/>
                    </g>
                    <g transform="matrix(0.331824,0,0,0.331824,-41.2472,527.823)">
                        <rect x="1515.13" y="629.699" width="133.97" height="37.738" style="fill:rgb(248,248,248);fill-rule:nonzero;"/>
                    </g>
                    <g transform="matrix(0.331824,0,0,0.331824,-41.2472,527.823)">
                        <rect x="1515.13" y="689.941" width="133.97" height="37.737" style="fill:rgb(248,248,248);fill-rule:nonzero;"/>
                    </g>
                    <g transform="matrix(0.331824,0,0,0.331824,-41.2472,527.823)">
                        <rect x="1515.13" y="748.066" width="133.97" height="37.738" style="fill:rgb(248,248,248);fill-rule:nonzero;"/>
                    </g>
                    <g transform="matrix(0.331824,0,0,0.331824,-41.2472,430.437)">
                        <rect x="1515.13" y="512.317" width="133.97" height="37.738" style="fill:rgb(248,248,248);fill-rule:nonzero;"/>
                    </g>
                    <g transform="matrix(0.331824,0,0,0.331824,-41.2472,430.437)">
                        <rect x="1515.13" y="570.402" width="133.97" height="37.737" style="fill:rgb(248,248,248);fill-rule:nonzero;"/>
                    </g>
                    <g transform="matrix(0.331824,0,0,0.331824,-41.2472,430.437)">
                        <rect x="1515.13" y="629.699" width="133.97" height="37.738" style="fill:rgb(248,248,248);fill-rule:nonzero;"/>
                    </g>
                    <g transform="matrix(0.331824,0,0,0.331824,-41.2472,430.437)">
                        <rect x="1515.13" y="689.941" width="133.97" height="37.737" style="fill:rgb(248,248,248);fill-rule:nonzero;"/>
                    </g>
                    <g transform="matrix(0.331824,0,0,0.331824,-41.2472,430.437)">
                        <rect x="1515.13" y="748.066" width="133.97" height="37.738" style="fill:rgb(248,248,248);fill-rule:nonzero;"/>
                    </g>
                    <g transform="matrix(0.331824,0,0,0.331824,-40.6395,512.532)">
                        <rect x="2161.25" y="507.592" width="62.52" height="22.919" style="fill:rgb(248,248,248);fill-rule:nonzero;"/>
                    </g>
                    <g transform="matrix(0.331824,0,0,0.331824,-40.6999,429.478)">
                        <rect x="2161.25" y="507.592" width="62.52" height="22.919" style="fill:rgb(248,248,248);fill-rule:nonzero;"/>
                    </g>
                    <g transform="matrix(0.331824,0,0,0.331824,-40.6395,512.532)">
                        <rect x="2161.25" y="542.868" width="62.52" height="22.918" style="fill:rgb(248,248,248);fill-rule:nonzero;"/>
                    </g>
                    <g transform="matrix(0.331824,0,0,0.331824,-40.6999,429.478)">
                        <rect x="2161.25" y="542.868" width="62.52" height="22.918" style="fill:rgb(248,248,248);fill-rule:nonzero;"/>
                    </g>
                    <g transform="matrix(0.331824,0,0,0.331824,-40.6395,512.532)">
                        <rect x="2161.25" y="578.88" width="62.52" height="22.918" style="fill:rgb(248,248,248);fill-rule:nonzero;"/>
                    </g>
                    <g transform="matrix(0.331824,0,0,0.331824,-40.6999,429.478)">
                        <rect x="2161.25" y="578.88" width="62.52" height="22.918" style="fill:rgb(248,248,248);fill-rule:nonzero;"/>
                    </g>
                    <g transform="matrix(0.331824,0,0,0.331824,-40.6395,512.532)">
                        <rect x="2161.25" y="615.465" width="62.52" height="22.918" style="fill:rgb(248,248,248);fill-rule:nonzero;"/>
                    </g>
                    <g transform="matrix(0.331824,0,0,0.331824,-40.6999,429.478)">
                        <rect x="2161.25" y="615.465" width="62.52" height="22.918" style="fill:rgb(248,248,248);fill-rule:nonzero;"/>
                    </g>
                    <g transform="matrix(0.331824,0,0,0.331824,-40.6395,512.532)">
                        <rect x="2161.25" y="650.766" width="62.52" height="22.918" style="fill:rgb(248,248,248);fill-rule:nonzero;"/>
                    </g>
                    <g transform="matrix(0.331824,0,0,0.331824,-40.6999,429.478)">
                        <rect x="2161.25" y="650.766" width="62.52" height="22.918" style="fill:rgb(248,248,248);fill-rule:nonzero;"/>
                    </g>
                    <g transform="matrix(0.331824,0,0,0.331824,-40.6395,512.532)">
                        <rect x="2161.25" y="689.617" width="62.52" height="22.918" style="fill:rgb(248,248,248);fill-rule:nonzero;"/>
                    </g>
                    <g transform="matrix(0.331824,0,0,0.331824,-40.6999,429.478)">
                        <rect x="2161.25" y="689.617" width="62.52" height="22.918" style="fill:rgb(248,248,248);fill-rule:nonzero;"/>
                    </g>
                    <g transform="matrix(0.331824,0,0,0.331824,-40.6395,512.532)">
                        <rect x="2161.25" y="724.892" width="62.52" height="22.918" style="fill:rgb(248,248,248);fill-rule:nonzero;"/>
                    </g>
                    <g transform="matrix(0.331824,0,0,0.331824,-40.6999,429.478)">
                        <rect x="2161.25" y="724.892" width="62.52" height="22.918" style="fill:rgb(248,248,248);fill-rule:nonzero;"/>
                    </g>
                    <g transform="matrix(0.331824,0,0,0.331824,-41.2472,527.823)">
                        <rect x="2272.45" y="522.622" width="66.99" height="22.918" style="fill:rgb(248,248,248);fill-rule:nonzero;"/>
                    </g>
                    <g transform="matrix(0.331824,0,0,0.331824,-41.2472,527.823)">
                        <rect x="2272.45" y="557.897" width="66.99" height="22.918" style="fill:rgb(248,248,248);fill-rule:nonzero;"/>
                    </g>
                    <g transform="matrix(0.331824,0,0,0.331824,-41.2472,527.823)">
                        <rect x="2272.45" y="593.909" width="66.99" height="22.918" style="fill:rgb(248,248,248);fill-rule:nonzero;"/>
                    </g>
                    <g transform="matrix(0.331824,0,0,0.331824,-41.2472,527.823)">
                        <rect x="2272.45" y="630.494" width="66.99" height="22.919" style="fill:rgb(248,248,248);fill-rule:nonzero;"/>
                    </g>
                    <g transform="matrix(0.331824,0,0,0.331824,-41.2472,527.823)">
                        <rect x="2272.45" y="665.795" width="66.99" height="22.918" style="fill:rgb(248,248,248);fill-rule:nonzero;"/>
                    </g>
                    <g transform="matrix(0.331824,0,0,0.331824,-41.2472,527.823)">
                        <rect x="2272.45" y="702.598" width="66.99" height="22.918" style="fill:rgb(248,248,248);fill-rule:nonzero;"/>
                    </g>
                    <g transform="matrix(0.331824,0,0,0.331824,-41.2472,527.823)">
                        <rect x="2272.45" y="737.873" width="66.99" height="22.918" style="fill:rgb(248,248,248);fill-rule:nonzero;"/>
                    </g>
                    <g transform="matrix(0.331824,0,0,0.331824,-41.2472,527.823)">
                        <rect x="2272.45" y="773.885" width="66.99" height="22.918" style="fill:rgb(248,248,248);fill-rule:nonzero;"/>
                    </g>
                    <g transform="matrix(0.331824,0,0,0.331824,-41.2472,527.823)">
                        <rect x="2272.45" y="810.471" width="66.99" height="22.918" style="fill:rgb(248,248,248);fill-rule:nonzero;"/>
                    </g>
                    <g transform="matrix(0.331824,0,0,0.331824,-41.2472,527.823)">
                        <rect x="2272.45" y="845.771" width="66.99" height="22.918" style="fill:rgb(248,248,248);fill-rule:nonzero;"/>
                    </g>
                    <g transform="matrix(0.331824,0,0,0.331824,-41.2472,527.823)">
                        <rect x="1132.5" y="507.592" width="66.99" height="22.919" style="fill:rgb(248,248,248);fill-rule:nonzero;"/>
                    </g>
                    <g transform="matrix(0.331824,0,0,0.331824,-41.2472,527.823)">
                        <rect x="1132.5" y="542.868" width="66.99" height="22.918" style="fill:rgb(248,248,248);fill-rule:nonzero;"/>
                    </g>
                    <g transform="matrix(0.331824,0,0,0.331824,-41.2472,527.823)">
                        <rect x="1132.5" y="578.88" width="66.99" height="22.918" style="fill:rgb(248,248,248);fill-rule:nonzero;"/>
                    </g>
                    <g transform="matrix(0.331824,0,0,0.331824,-41.2472,527.823)">
                        <rect x="1132.5" y="615.465" width="66.99" height="22.918" style="fill:rgb(248,248,248);fill-rule:nonzero;"/>
                    </g>
                    <g transform="matrix(0.331824,0,0,0.331824,-41.2472,527.823)">
                        <rect x="1132.5" y="650.766" width="66.99" height="22.918" style="fill:rgb(248,248,248);fill-rule:nonzero;"/>
                    </g>
                    <g transform="matrix(0.331824,0,0,0.331824,-41.2472,527.823)">
                        <rect x="1132.5" y="689.617" width="66.99" height="22.918" style="fill:rgb(248,248,248);fill-rule:nonzero;"/>
                    </g>
                    <g transform="matrix(0.331824,0,0,0.331824,-41.2472,527.823)">
                        <rect x="1132.5" y="724.892" width="66.99" height="22.918" style="fill:rgb(248,248,248);fill-rule:nonzero;"/>
                    </g>
                    <g transform="matrix(0.331824,0,0,0.331824,-41.2472,527.823)">
                        <rect x="1132.5" y="760.904" width="66.99" height="22.918" style="fill:rgb(248,248,248);fill-rule:nonzero;"/>
                    </g>
                    <g transform="matrix(0.331824,0,0,0.331824,-41.2472,527.823)">
                        <rect x="1132.5" y="797.489" width="66.99" height="22.918" style="fill:rgb(248,248,248);fill-rule:nonzero;"/>
                    </g>
                    <g transform="matrix(0.331824,0,0,0.331824,-41.2472,527.823)">
                        <rect x="1132.5" y="832.79" width="66.99" height="22.918" style="fill:rgb(248,248,248);fill-rule:nonzero;"/>
                    </g>
                    <g transform="matrix(0.331824,0,0,0.331824,-41.2472,527.823)">
                        <rect x="1245.94" y="522.622" width="76.14" height="22.918" style="fill:rgb(248,248,248);fill-rule:nonzero;"/>
                    </g>
                    <g transform="matrix(0.331824,0,0,0.331824,-41.2472,527.823)">
                        <rect x="1245.94" y="557.897" width="76.14" height="22.918" style="fill:rgb(248,248,248);fill-rule:nonzero;"/>
                    </g>
                    <g transform="matrix(0.331824,0,0,0.331824,-41.2472,527.823)">
                        <rect x="1245.94" y="593.909" width="76.14" height="22.918" style="fill:rgb(248,248,248);fill-rule:nonzero;"/>
                    </g>
                    <g transform="matrix(0.331824,0,0,0.331824,-41.2472,527.823)">
                        <rect x="1245.94" y="630.494" width="76.14" height="22.919" style="fill:rgb(248,248,248);fill-rule:nonzero;"/>
                    </g>
                    <g transform="matrix(0.331824,0,0,0.331824,-41.2472,527.823)">
                        <rect x="1245.94" y="665.795" width="76.14" height="22.918" style="fill:rgb(248,248,248);fill-rule:nonzero;"/>
                    </g>
                    <g transform="matrix(0.331824,0,0,0.331824,-41.2472,527.823)">
                        <rect x="1245.94" y="702.598" width="76.14" height="22.918" style="fill:rgb(248,248,248);fill-rule:nonzero;"/>
                    </g>
                    <g transform="matrix(0.331824,0,0,0.331824,-41.2472,527.823)">
                        <rect x="1245.94" y="737.873" width="76.14" height="22.918" style="fill:rgb(248,248,248);fill-rule:nonzero;"/>
                    </g>
                    <g transform="matrix(0.331824,0,0,0.331824,-41.2472,527.823)">
                        <rect x="1245.94" y="773.885" width="76.14" height="22.918" style="fill:rgb(248,248,248);fill-rule:nonzero;"/>
                    </g>
                    <g transform="matrix(0.331824,0,0,0.331824,-41.2472,527.823)">
                        <rect x="1245.94" y="810.471" width="76.14" height="22.918" style="fill:rgb(248,248,248);fill-rule:nonzero;"/>
                    </g>
                    <g transform="matrix(0.331824,0,0,0.331824,-41.2472,527.823)">
                        <rect x="1245.94" y="845.771" width="76.14" height="22.918" style="fill:rgb(248,248,248);fill-rule:nonzero;"/>
                    </g>
                </g>
                <g id="stoep" transform="matrix(0.991813,0,0,1,14.0642,-2.47178)">
                    <g transform="matrix(1,0,0,0.37132,-1088.4,-610.904)">
                        <rect x="1079.52" y="3895.59" width="780.699" height="5.588" style="fill:white;"/>
                    </g>
                    <g transform="matrix(1,0,0,1,-1088.4,-3059.35)">
                        <rect x="1414.55" y="3897.03" width="0.146" height="2.075" style="fill:rgb(128,128,128);"/>
                    </g>
                    <g transform="matrix(1.57003,0,0,1,-1703.75,-3051.08)">
                        <rect x="1079.52" y="3868.6" width="497.861" height="18.077" style="fill:rgb(203,203,203);"/>
                    </g>
                    <g transform="matrix(0.999859,0,0,0.742639,-1088.24,-2055.35)">
                        <rect x="1079.52" y="3895.59" width="780.699" height="5.588" style="fill:rgb(203,203,203);"/>
                    </g>
                    <g>
                        <g transform="matrix(0.999671,0.0256533,-0.0256533,0.999671,-987.799,-3104.76)">
                            <path d="M1819.66,3894.96L1820.27,3894.95L1820.36,3901.18L1819.76,3901.18L1819.66,3894.96Z" style="fill:rgb(106,106,106);"/>
                        </g>
                        <g transform="matrix(0.999671,0.0256538,-0.0256536,0.999699,-1043.68,-3104.87)">
                            <path d="M1819.66,3894.96L1820.27,3894.95L1820.36,3901.18L1819.76,3901.18L1819.66,3894.96Z" style="fill:rgb(106,106,106);"/>
                        </g>
                        <g transform="matrix(0.999671,0.0256538,-0.0256536,0.999699,-1093.74,-3104.88)">
                            <path d="M1819.66,3894.96L1820.27,3894.95L1820.36,3901.18L1819.76,3901.18L1819.66,3894.96Z" style="fill:rgb(106,106,106);"/>
                        </g>
                        <g transform="matrix(0.999671,0.0256538,-0.0256536,0.999699,-1146.6,-3105.02)">
                            <path d="M1819.66,3894.96L1820.27,3894.95L1820.36,3901.18L1819.76,3901.18L1819.66,3894.96Z" style="fill:rgb(106,106,106);"/>
                        </g>
                        <g transform="matrix(0.999666,0.0261259,-0.0259879,1.03113,-1208.07,-3228.22)">
                            <path d="M1819.66,3894.96L1820.27,3894.95L1820.36,3901.18L1819.76,3901.18L1819.66,3894.96Z" style="fill:rgb(106,106,106);"/>
                        </g>
                        <g transform="matrix(0.999666,0.0261259,-0.0259879,1.03113,-1269.45,-3228.51)">
                            <path d="M1819.66,3894.96L1820.27,3894.95L1820.36,3901.18L1819.76,3901.18L1819.66,3894.96Z" style="fill:rgb(106,106,106);"/>
                        </g>
                        <g transform="matrix(0.999666,0.0261259,-0.0259879,1.03113,-1323.48,-3228.43)">
                            <path d="M1819.66,3894.96L1820.27,3894.95L1820.36,3901.18L1819.76,3901.18L1819.66,3894.96Z" style="fill:rgb(106,106,106);"/>
                        </g>
                        <g transform="matrix(0.999666,0.0261259,-0.0259879,1.03113,-1378.74,-3228.54)">
                            <path d="M1819.66,3894.96L1820.27,3894.95L1820.36,3901.18L1819.76,3901.18L1819.66,3894.96Z" style="fill:rgb(106,106,106);"/>
                        </g>
                        <g transform="matrix(0.999666,0.0261259,-0.0259879,1.03113,-1438.79,-3228.32)">
                            <path d="M1819.66,3894.96L1820.27,3894.95L1820.36,3901.18L1819.76,3901.18L1819.66,3894.96Z" style="fill:rgb(106,106,106);"/>
                        </g>
                        <g transform="matrix(0.999666,0.0261259,-0.0259879,1.03113,-1493.61,-3228.51)">
                            <path d="M1819.66,3894.96L1820.27,3894.95L1820.36,3901.18L1819.76,3901.18L1819.66,3894.96Z" style="fill:rgb(106,106,106);"/>
                        </g>
                        <g transform="matrix(0.999666,0.0261259,-0.0259879,1.03113,-1554.87,-3228.45)">
                            <path d="M1819.66,3894.96L1820.27,3894.95L1820.36,3901.18L1819.76,3901.18L1819.66,3894.96Z" style="fill:rgb(106,106,106);"/>
                        </g>
                        <g transform="matrix(0.999666,0.0261259,-0.0259879,1.03113,-1611.99,-3228.65)">
                            <path d="M1819.66,3894.96L1820.27,3894.95L1820.36,3901.18L1819.76,3901.18L1819.66,3894.96Z" style="fill:rgb(106,106,106);"/>
                        </g>
                        <g transform="matrix(0.999666,0.0261259,-0.0259879,1.03113,-1676.36,-3228.46)">
                            <path d="M1819.66,3894.96L1820.27,3894.95L1820.36,3901.18L1819.76,3901.18L1819.66,3894.96Z" style="fill:rgb(106,106,106);"/>
                        </g>
                    </g>
                </g>
                <g transform="matrix(0.990458,0,0,1,-976.342,-4660.02)">
                    <rect x="991.059" y="4670.92" width="781.657" height="1943.47" style="fill:none;"/>
                </g>
            </g>
        </g>
    </g>
</svg>
