<?xml version="1.0" encoding="UTF-8" standalone="no"?>
<!DOCTYPE svg PUBLIC "-//W3C//DTD SVG 1.1//EN" "http://www.w3.org/Graphics/SVG/1.1/DTD/svg11.dtd">
<svg width="100%" height="100%" viewBox="0 0 783 1944" version="1.1" xmlns="http://www.w3.org/2000/svg" xmlns:xlink="http://www.w3.org/1999/xlink" xml:space="preserve" xmlns:serif="http://www.serif.com/" style="fill-rule:evenodd;clip-rule:evenodd;stroke-linecap:round;stroke-linejoin:round;stroke-miterlimit:1.5;">
    <g transform="matrix(1,0,0,1,-991.237,-4670.92)">
        <g transform="matrix(1,0,0,1,-13.0848,1194.21)">
            <g id="Layer31" transform="matrix(-1.56706,0,0,1.59419,3205.5,1529.55)">
                <g transform="matrix(1,0,0,1,-1.9612,-0.358891)">
                    <path d="M1091.42,2056.49L1091.42,1993.65L1103.43,1973.14L1122.94,1958.28L1140.93,1974.5C1140.93,1974.5 1151.41,1993.85 1150.93,1993.19C1150.46,1992.54 1150.52,2056.49 1150.52,2056.49L1091.42,2056.49Z" style="fill:white;"/>
                </g>
                <g transform="matrix(1,0,0,1,-1.9612,-0.358891)">
                    <path d="M1091.42,1994.2C1091.07,1994.27 1035.55,1994.2 1035.55,1994.2L1035.56,2046.61C1035.56,2046.61 1091.33,2045.38 1091.42,2046.61C1091.5,2047.84 1091.76,1994.13 1091.42,1994.2Z" style="fill:rgb(216,216,216);"/>
                </g>
                <g transform="matrix(1,0,0,1,-1.9612,-0.358891)">
                    <path d="M1029.04,1994.2L1043.65,1972.41L1063.58,1954.09C1063.58,1954.09 1121.38,1953.54 1121.18,1953.36C1120.98,1953.17 1143.89,1972.06 1143.89,1972.06L1156.65,1992.74L1150.95,1994.2C1150.95,1994.2 1140.94,1974.95 1140.96,1974.95C1140.98,1974.95 1122.31,1958.59 1122.87,1958.28C1123.3,1958.03 1103.16,1973.72 1103.16,1973.72L1091.59,1994.2L1029.04,1994.2Z" style="fill:rgb(62,79,102);"/>
                </g>
                <g transform="matrix(1,0,0,1,-1.9612,-0.358891)">
                    <path d="M1042.98,1973.78L1029.04,1994.2L1091.42,1994.2L1103.08,1973.78L1042.98,1973.78Z" style="fill:rgb(34,50,71);"/>
                </g>
                <g transform="matrix(1,0,0,1,-1.9612,-0.358891)">
                    <path d="M1099.89,2046.63L1100.06,2011.51L1144.15,2011.44L1144.06,2052.48L1099.89,2046.63Z" style="fill:rgb(62,79,102);"/>
                </g>
                <g transform="matrix(1,0,0,1.12424,18.5836,-250.499)">
                    <path d="M1121.18,2013.34L1103.08,2013.34L1103.08,2023.36L1121.18,2023.36L1121.18,2013.34ZM1120.38,2014.04L1120.38,2022.66C1120.38,2022.66 1103.88,2022.66 1103.88,2022.66L1103.88,2014.04L1120.38,2014.04Z" style="fill:white;"/>
                </g>
                <g transform="matrix(1,0,0,1.12424,-1.9612,-250.499)">
                    <path d="M1121.18,2013.34L1103.08,2013.34L1103.08,2023.36L1121.18,2023.36L1121.18,2013.34ZM1120.38,2014.04L1120.38,2022.66C1120.38,2022.66 1103.88,2022.66 1103.88,2022.66L1103.88,2014.04L1120.38,2014.04Z" style="fill:white;"/>
                </g>
                <g transform="matrix(1,0,0,1.12424,-1.9612,-250.967)">
                    <path d="M1103.68,2023.73L1120.21,2044.54" style="fill:none;stroke:white;stroke-width:0.74px;"/>
                </g>
                <g transform="matrix(0.220715,1.09652,-0.975338,0.248137,2848.36,311.934)">
                    <path d="M1103.69,2023.24L1120.21,2044.54" style="fill:none;stroke:white;stroke-width:0.72px;"/>
                </g>
                <g transform="matrix(1,0,0,1.12424,18.5464,-250.499)">
                    <path d="M1103.72,2023.36L1120.62,2045.89" style="fill:none;stroke:white;stroke-width:0.74px;"/>
                </g>
                <g transform="matrix(0.220715,1.09652,-0.975338,0.248137,2868.87,311.934)">
                    <path d="M1103.7,2023.21L1120.21,2044.54" style="fill:none;stroke:white;stroke-width:0.72px;"/>
                </g>
                <g transform="matrix(1,0,0,1,-1.9612,-0.358891)">
                    <rect x="1040.74" y="2012.98" width="10.229" height="13.422" style="fill:rgb(62,79,102);"/>
                </g>
                <g transform="matrix(1,0,0,1,14.6844,-0.486424)">
                    <rect x="1040.74" y="2012.98" width="10.229" height="13.422" style="fill:rgb(62,79,102);"/>
                </g>
                <g transform="matrix(1,0,0,1,31.2292,-0.591437)">
                    <rect x="1040.74" y="2012.98" width="10.229" height="13.422" style="fill:rgb(62,79,102);"/>
                </g>
                <g transform="matrix(0.823241,0,0,0.594252,248.35,800.685)">
                    <rect x="1040.74" y="2012.98" width="10.229" height="13.422" style="fill:rgb(62,79,102);"/>
                </g>
                <g transform="matrix(1.04271,0,0,0.761115,30.4539,446.411)">
                    <rect x="1040.74" y="2012.98" width="10.229" height="13.422" style="fill:rgb(62,79,102);"/>
                </g>
                <g transform="matrix(0.823241,0,0,0.594252,271.235,800.705)">
                    <rect x="1040.74" y="2012.98" width="10.229" height="13.422" style="fill:rgb(62,79,102);"/>
                </g>
                <g transform="matrix(-0.638138,0,0,0.627277,2037.2,-1708.55)">
                    <rect x="991.237" y="4670.92" width="782.292" height="1943.47" style="fill:none;"/>
                </g>
            </g>
        </g>
    </g>
</svg>
