<?xml version="1.0" encoding="UTF-8" standalone="no"?>
<!DOCTYPE svg PUBLIC "-//W3C//DTD SVG 1.1//EN" "http://www.w3.org/Graphics/SVG/1.1/DTD/svg11.dtd">
<svg width="100%" height="100%" viewBox="0 0 784 1944" version="1.1" xmlns="http://www.w3.org/2000/svg" xmlns:xlink="http://www.w3.org/1999/xlink" xml:space="preserve" xmlns:serif="http://www.serif.com/" style="fill-rule:evenodd;clip-rule:evenodd;stroke-linejoin:round;stroke-miterlimit:2;">
    <g transform="matrix(1,0,0,1,-990.145,-4670.92)">
        <g transform="matrix(1,0,0,1,-13.0848,1194.21)">
            <g id="grond" transform="matrix(1,0,0,1,1024.99,3697.78)">
                <g id="grond2" transform="matrix(1,0,0,1.23139,-20.4376,-11.0812)">
                    <g transform="matrix(1.122,0,0,0.610358,-50.1269,218.758)">
                        <path d="M44.111,1731.95C44.111,1731.95 101.486,1750.81 170.481,1721.85C239.475,1692.9 212.189,1699.94 253.113,1714.28C294.036,1728.62 356.455,1734.29 401.135,1737.41C445.815,1740.52 485.29,1747.95 533.505,1740.77C581.721,1733.58 602.89,1739.31 630.994,1723.55C659.098,1707.78 652.649,1702.56 683.154,1712.61C713.659,1722.66 740.981,1721.85 740.981,1721.85L740.981,1483.97L44.677,1496.88L44.111,1731.95Z" style="fill:rgb(190,190,190);"/>
                    </g>
                    <g transform="matrix(-0.652834,0.193389,-0.169434,-0.377206,944.297,1699.81)">
                        <ellipse cx="661.047" cy="1620.67" rx="19.345" ry="8.486" style="fill:rgb(237,237,237);"/>
                    </g>
                    <g transform="matrix(-0.988853,-9.83436e-17,1.211e-16,-0.803037,991.331,2537.82)">
                        <ellipse cx="661.047" cy="1620.67" rx="19.345" ry="8.486" style="fill:rgb(237,237,237);"/>
                    </g>
                    <g transform="matrix(-0.988853,-9.83436e-17,1.211e-16,-0.803037,878.94,2549.91)">
                        <ellipse cx="661.047" cy="1620.67" rx="19.345" ry="8.486" style="fill:rgb(237,237,237);"/>
                    </g>
                    <g transform="matrix(0.649751,0.200118,-0.17533,0.375425,-15.2862,488.826)">
                        <ellipse cx="661.047" cy="1620.67" rx="19.345" ry="8.486" style="fill:rgb(237,237,237);"/>
                    </g>
                    <g transform="matrix(0.979649,0.109308,-0.134601,0.795563,-358.064,-119.959)">
                        <ellipse cx="661.047" cy="1620.67" rx="19.345" ry="8.486" style="fill:rgb(237,237,237);"/>
                    </g>
                    <g transform="matrix(-0.348964,-0.364227,0.555263,-0.350845,-257.485,2035.72)">
                        <ellipse cx="661.047" cy="1620.67" rx="19.345" ry="8.486" style="fill:rgb(237,237,237);"/>
                    </g>
                    <g transform="matrix(0.662834,0.169478,-0.148485,0.382984,483.575,506.458)">
                        <ellipse cx="661.047" cy="1620.67" rx="19.345" ry="8.486" style="fill:rgb(237,237,237);"/>
                    </g>
                    <g transform="matrix(0.988853,0,0,0.803037,-13.8753,-45.2385)">
                        <ellipse cx="661.047" cy="1620.67" rx="19.345" ry="8.486" style="fill:rgb(237,237,237);"/>
                    </g>
                    <g transform="matrix(1.15683,0,0,0.551642,-73.9073,323.482)">
                        <path d="M63.888,1696.63C63.888,1696.63 183.48,1684.95 227.846,1684.46C272.212,1683.97 331.537,1701.75 367.843,1703.78C404.15,1705.8 467.778,1716.68 511.853,1709.26C555.928,1701.83 600.416,1711 625.789,1702.94C651.162,1694.89 664.855,1700.36 690.745,1696.63C716.635,1692.9 739.226,1702.94 739.226,1702.94L739.226,1899.22C739.226,1899.22 625.872,1907.14 565.604,1899.22C505.335,1891.31 449.094,1873.43 410.75,1874.43C372.405,1875.43 321.34,1866.89 282.392,1867.69C243.443,1868.49 196.739,1869.82 162.058,1870.64C127.378,1871.47 68.227,1868.87 64.57,1867.69C60.913,1866.51 63.888,1867.69 63.888,1867.69L63.888,1696.63Z" style="fill:rgb(237,237,237);"/>
                    </g>
                    <g transform="matrix(1.13818,0,0,1.19357,-63.646,-900.712)">
                        <path d="M55.919,1876.26C55.919,1876.26 193.71,1877.31 241.819,1876.26C289.927,1875.21 385.954,1867.81 409.315,1868.68C432.676,1869.54 472.148,1877.17 513.046,1877.79C553.944,1878.41 549.882,1889.11 600.522,1888.72C651.162,1888.33 687.917,1887.39 711.204,1887.86C734.491,1888.33 742.323,1887.86 742.323,1887.86L742.324,1918.86L55.919,1918.86L55.919,1876.26Z" style="fill:rgb(250,250,250);"/>
                    </g>
                    <g transform="matrix(0.988853,0,0,0.803037,91.1875,-58.8675)">
                        <ellipse cx="661.047" cy="1620.67" rx="19.345" ry="8.486" style="fill:rgb(237,237,237);"/>
                    </g>
                    <g transform="matrix(-0.622992,0.250016,-0.219047,-0.359964,1309.32,1676.52)">
                        <ellipse cx="661.047" cy="1620.67" rx="19.345" ry="8.486" style="fill:rgb(237,237,237);"/>
                    </g>
                    <g transform="matrix(-0.988853,-9.83436e-17,1.211e-16,-0.803037,1234.38,2542.84)">
                        <ellipse cx="661.047" cy="1620.67" rx="19.345" ry="8.486" style="fill:rgb(237,237,237);"/>
                    </g>
                    <g transform="matrix(-0.988853,-9.83436e-17,1.211e-16,-0.803037,1119.15,2553.06)">
                        <ellipse cx="661.047" cy="1620.67" rx="19.345" ry="8.486" style="fill:rgb(237,237,237);"/>
                    </g>
                </g>
                <g transform="matrix(1,0,0,1,52.1574,-1.74559)">
                    <g id="water">
                        <path d="M54.016,1238.01C54.016,1238.01 111.02,1236.42 149.896,1242.18C188.771,1247.95 203.748,1249.81 230.016,1246.14C256.283,1242.46 267.354,1244.03 297.495,1242.42C327.637,1240.81 341.403,1244.08 361.415,1243.82C381.427,1243.56 389.677,1241.55 396.255,1247.77C402.833,1253.99 376.275,1332.65 376.275,1332.65L292.615,1362.18L159.656,1359.15L59.996,1343.34L32.476,1288L54.016,1238.01Z" style="fill:rgb(119,197,227);fill-opacity:0.82;"/>
                    </g>
                </g>
                <g transform="matrix(1.00137,0,0,1,55.9979,-2.4987)">
                    <path d="M-76.737,1191.08C-76.737,1191.08 38.477,1188.01 59.232,1195.74C81.89,1204.17 55.204,1210.98 59.232,1225.4C63.26,1239.82 65.086,1262.34 82.296,1272.89C99.506,1283.45 107.818,1282.62 122.456,1294.78C137.095,1306.94 133.844,1320.04 151.244,1323.22C168.643,1326.41 204.816,1333.95 223.982,1327.5C243.149,1321.04 266.682,1312.27 284.786,1311.28C302.889,1310.3 317.855,1305.04 329.838,1295.92C341.82,1286.81 357.098,1289.95 370.267,1276.3C383.436,1262.64 380.831,1245.39 381.126,1234.22C381.374,1224.85 373.962,1209.8 395.984,1203.34C400.249,1202.08 405.617,1201.15 412.36,1200.65C453.915,1197.53 490.235,1201.54 517.383,1197.52C544.531,1193.51 561.666,1189.09 592.03,1192.98C622.393,1196.86 631.653,1193.42 656.893,1192.12C682.133,1190.82 704.513,1192.12 704.513,1192.12L704.513,1401.04L-76.737,1393.08L-76.737,1191.08Z" style="fill:rgb(62,79,102);"/>
                </g>
                <g transform="matrix(1.00736,0,0,0.642295,-1129.03,429.925)">
                    <path d="M1242.2,1191.47C1242.2,1191.47 1244.47,1194.32 1245.16,1198.02C1245.76,1201.25 1245.21,1202.52 1244.48,1204.25C1243.75,1205.99 1225.6,1205.44 1216.89,1203.97C1208.18,1202.5 1186.09,1196.61 1177.02,1199.78C1167.94,1202.94 1153.71,1202.69 1142.87,1199.78C1132.02,1196.86 1113.62,1197.89 1109.38,1199.78C1105.14,1201.66 1100.09,1199.78 1100.09,1199.78L1100.09,1181.17L1196.11,1181.17L1222.57,1183.79L1233.66,1187L1238.62,1188.95L1242.2,1191.47" style="fill:rgb(47,67,92);"/>
                    <path d="M1222.57,1183.79L1196.11,1181.17C1196.11,1181.17 1100.1,1181.18 1100.1,1181.18L1100.1,1199.77C1100.18,1199.8 1102.2,1200.54 1104.74,1200.61C1106.21,1200.64 1107.85,1200.45 1109.38,1199.77C1111.77,1198.71 1118.63,1197.92 1126.12,1197.95C1131.93,1197.97 1138.12,1198.49 1142.87,1199.77C1148.09,1201.17 1154.11,1201.96 1159.95,1202.04C1166.23,1202.13 1172.32,1201.41 1177.01,1199.77C1179.95,1198.75 1184.24,1198.67 1189,1199.08C1198.97,1199.95 1211,1202.96 1216.89,1203.96C1221.19,1204.69 1227.81,1205.19 1233.49,1205.3C1237.86,1205.39 1241.67,1205.24 1243.44,1204.79C1243.83,1204.69 1244.12,1204.58 1244.3,1204.45C1244.39,1204.38 1244.44,1204.32 1244.48,1204.25C1244.89,1203.26 1245.25,1202.42 1245.37,1201.29C1245.46,1200.43 1245.41,1199.41 1245.15,1198.03C1244.9,1196.69 1244.45,1195.46 1243.97,1194.44C1243.12,1192.64 1242.2,1191.48 1242.2,1191.48C1242.2,1191.48 1242.2,1191.47 1242.2,1191.47C1242.2,1191.46 1242.2,1191.46 1242.2,1191.46C1242.2,1191.46 1242.2,1191.46 1242.21,1191.46C1242.21,1191.46 1243.13,1192.62 1243.98,1194.42C1244.46,1195.45 1244.92,1196.68 1245.17,1198.02C1245.42,1199.41 1245.47,1200.43 1245.38,1201.29C1245.26,1202.43 1244.9,1203.27 1244.49,1204.26C1244.45,1204.33 1244.39,1204.4 1244.31,1204.46C1244.13,1204.59 1243.84,1204.71 1243.45,1204.81C1241.67,1205.26 1237.86,1205.41 1233.49,1205.32C1227.81,1205.21 1221.19,1204.71 1216.89,1203.98C1211,1202.98 1198.97,1199.96 1189,1199.1C1184.24,1198.68 1179.95,1198.76 1177.02,1199.78C1172.32,1201.42 1166.23,1202.15 1159.95,1202.06C1154.11,1201.97 1148.09,1201.19 1142.87,1199.78C1138.12,1198.51 1131.93,1197.99 1126.12,1197.96C1118.63,1197.93 1111.77,1198.72 1109.38,1199.78C1107.85,1200.46 1106.21,1200.65 1104.74,1200.62C1102.15,1200.55 1100.09,1199.78 1100.09,1199.78L1100.09,1199.78L1100.09,1181.17L1100.09,1181.17L1196.11,1181.17L1222.57,1183.79Z"/>
                </g>
                <g transform="matrix(1,0,0,1,-1011.9,-4892)">
                    <path d="M991.059,6100.94C991.059,6100.94 991.77,6100.47 996.493,6100.11C998.736,6099.93 1001.88,6099.53 1006.29,6099.69C1019.97,6100.17 1022.65,6100.02 1033.04,6100.94C1043.44,6101.87 1058.87,6101.15 1067.06,6100.94C1075.25,6100.74 1084.44,6099.03 1093.42,6100.94C1102.39,6102.86 1118.3,6100.87 1122.2,6100.94C1126.11,6101.02 1131.24,6101.28 1134.09,6098.13C1136.95,6094.98 1137.22,6094.97 1137.45,6092.98C1137.68,6090.98 1132.69,6093.99 1132.69,6093.99L1092.16,6088.34L1018.49,6088.34L996.493,6090.6L991.059,6090.6L991.059,6100.94Z" style="fill:rgb(47,67,92);"/>
                </g>
                <g transform="matrix(1,0,0,0.1964,-19.7744,955.995)">
                    <path d="M781.25,1188.02C781.406,1186.29 758.233,1180.53 739.912,1188.02C723.611,1194.69 704.519,1192.92 698.109,1193.76C694.553,1194.23 686.938,1195.11 679.279,1194.75C673.13,1194.46 666.952,1193.37 662.823,1190.62C657.094,1186.81 653.983,1185.75 645.936,1186.11C643.403,1186.22 640.398,1186.12 636.542,1188.02C634.008,1189.27 630.547,1190.15 627.124,1190.62C601.941,1194.04 581.826,1190.26 567.517,1190.62C554.544,1190.95 527.289,1188.11 514.779,1188.02C502.269,1187.94 484.268,1196.5 474.567,1199.32C467.767,1201.3 462.53,1232.61 459.541,1255.1C458.266,1264.69 457.387,1278.16 457.296,1280.67C455.865,1320.35 459.541,1297.5 459.541,1297.5C459.541,1297.5 460.801,1293.38 467.664,1266.01C472.191,1247.96 478.603,1241.32 483.906,1240.87C497.25,1239.72 502.924,1247.65 514.779,1247.11C526.634,1246.57 536.1,1241.06 548.149,1240.87C560.197,1240.68 558.001,1236.94 577.751,1236.62C597.501,1236.3 598.441,1237.5 616.309,1238.25C634.176,1239 639.762,1238.66 655.5,1238.25C671.238,1237.85 672.421,1239.75 689.416,1240.87C706.412,1241.98 714.106,1238.07 723.557,1237.76C733.007,1237.46 738.396,1247.48 748.806,1247.11C759.215,1246.75 761.665,1238.54 769.148,1238.58C776.631,1238.62 781.25,1240.87 781.25,1240.87L781.25,1188.02Z" style="fill:rgb(47,67,92);"/>
                </g>
                <g transform="matrix(1,0,0,0.685112,-1119.87,376.622)">
                    <path d="M1556.87,1218.66C1556.87,1218.66 1583.66,1220.5 1589.12,1218.66C1594.58,1216.81 1622.98,1216.67 1639.91,1218.66C1656.84,1220.64 1674.64,1219.74 1687.59,1218.66C1700.54,1217.58 1740.2,1216.01 1749.04,1218.66C1757.87,1221.3 1805.47,1222.98 1817.63,1221.68C1829.79,1220.4 1862.08,1218.59 1869.24,1221.68C1876.4,1224.78 1881.34,1221.68 1881.34,1221.68L1881.34,1200.26L1859.34,1200.26L1772.03,1200.14L1734.12,1200.01L1698.88,1200.14L1664.95,1200.14C1664.95,1200.14 1646.51,1199.28 1639.91,1200.2C1633.3,1201.12 1603.7,1200.26 1603.7,1200.26L1572.58,1200.01L1558.37,1212.76L1557.68,1218.71" style="fill:rgb(47,67,92);"/>
                </g>
                <g transform="matrix(1,0,0,1.03385,-1116.61,-53.7396)">
                    <path d="M1096.84,1406.05C1096.84,1406.05 1103.98,1410.17 1114.58,1408.66C1125.17,1407.15 1167.37,1405.85 1185,1408.55C1202.63,1411.26 1214.95,1411.54 1243.29,1408.45C1271.63,1405.36 1300.75,1407.48 1315.18,1407.57C1329.6,1407.67 1422.01,1414.56 1445.99,1410.42C1469.96,1406.27 1525.73,1409.75 1557.12,1408.01C1588.5,1406.27 1676.36,1403.9 1726.52,1408.13C1776.68,1412.36 1788.4,1411.69 1804.68,1410C1820.96,1408.3 1831.12,1411.49 1846.68,1410.54C1862.24,1409.59 1875.88,1407.84 1878.09,1407.65L1878.09,1367.9L1096.84,1367.9L1096.84,1406.05Z" style="fill:rgb(47,67,92);"/>
                </g>
                <g transform="matrix(1,0,0,1,-1116.61,-5.95495)">
                    <path d="M1096.84,1366.42C1096.84,1366.42 1121.71,1359.86 1134.9,1359.26C1148.09,1358.65 1174.12,1365.4 1185,1366.42C1195.88,1367.43 1221.26,1375.81 1239.01,1366.42C1256.77,1357.02 1263.72,1361.3 1283.07,1366.42C1302.42,1371.54 1316.59,1374.25 1338.72,1366.42C1360.85,1358.58 1421.14,1369.05 1437.83,1366.42C1454.52,1363.79 1480.07,1355.18 1492.94,1359.26C1505.81,1363.34 1512.83,1371.13 1542.22,1366.42C1571.61,1361.7 1603.54,1357.78 1623.95,1359.26C1644.36,1360.74 1675.04,1363.64 1685.54,1363.63C1696.04,1363.62 1710.84,1358.31 1739.35,1359.26C1767.86,1360.21 1793.49,1358.31 1804.68,1359.26C1815.88,1360.21 1838.61,1364.17 1846.68,1366.42C1854.75,1368.66 1878.09,1366.42 1878.09,1366.42" style="fill:rgb(47,66,91);"/>
                </g>
                <g transform="matrix(1,0,0,1,-1011.9,-4892)">
                    <rect x="991.059" y="4670.92" width="781.657" height="1943.47" style="fill:none;"/>
                </g>
            </g>
        </g>
    </g>
</svg>
